<mxfile host="app.diagrams.net" modified="2022-10-04T19:22:30.503Z" agent="5.0 (Macintosh)" etag="cHNX0E3PjrSfo4SGB3Ht" version="20.2.8" type="github">
  <diagram name="Page-1" id="c9db0220-8083-56f3-ca83-edcdcd058819">
    <mxGraphModel dx="1843" dy="1152" grid="1" gridSize="10" guides="1" tooltips="1" connect="1" arrows="1" fold="1" page="1" pageScale="1.5" pageWidth="826" pageHeight="1169" background="#ffffff" math="0" shadow="0">
      <root>
        <mxCell id="0" style=";html=1;" />
        <mxCell id="1" style=";html=1;" parent="0" />
        <mxCell id="xE5-gIOUlX2Joq6-kquB-7" value="" style="rounded=0;whiteSpace=wrap;html=1;dashed=1;fillColor=#f5f5f5;fontColor=#333333;strokeColor=#666666;" vertex="1" parent="1">
          <mxGeometry x="200" y="340" width="1270" height="570" as="geometry" />
        </mxCell>
        <mxCell id="xE5-gIOUlX2Joq6-kquB-10" value="" style="rounded=0;whiteSpace=wrap;html=1;fillColor=default;" vertex="1" parent="1">
          <mxGeometry x="550" y="470" width="510" height="200" as="geometry" />
        </mxCell>
        <mxCell id="xE5-gIOUlX2Joq6-kquB-3" value="" style="shape=image;verticalLabelPosition=bottom;labelBackgroundColor=default;verticalAlign=top;aspect=fixed;imageAspect=0;image=data:image/png,iVBORw0KGgoAAAANSUhEUgAABPMAAABKCAYAAADe6hEAAAAYRWlDQ1BJQ0MgUHJvZmlsZQAAWIWVWQdUFEuz7tnIwi4555xzDpJzkpwRWJa0ZMkgiARRwhVMqIAiSUSSYAAREZAgiiBBQDAACgqiYkBR0htAvfe//znvndfn9My31dXV1VXd1V2zAHAoEsPDgxG0AISERkXYGuvxOru48mLnAQ6wA0qgChSIpMhwXWtrCwCX3+//LN/GALT9HpHalvXf7f9rofPxjSQBAFnD2NsnkhQC4+sAoJRJ4RFRAKCXYLpAbFQ4jDGwloAxAlYQxoLb2H8Xq25j711sscNjb6sPYy8AKPBEYoQ/ANTbevHGkPxhOdQ5cBt9qA85FGa9CGMtUgDRBwD2aZhHMiQkDMYceBiLev9Djv9/yPT+I5NI9P+Dd+eyUygMyJHhwcT4/6c5/u8SEhz9ewwBuOIDIkxst+e8bbegMPNtDOsO3Q/13msFY3oYj5J9dvi38XxAtInDL/5VUqQ+bDPADAAC70M0MIcxJ4z5Q4P3Wvyia/mRjUxhDNseYU+OMrXf7YvwiQiz/SUfEecbaWj3GxMjdsba5smKDnLQ/SXzQoCv6W+ZLQkB9k67eiIex5Ad98KYGsbPIoPszH/xLCYE6O/9zRMRbbutM+xzJPCLMLLd5UEKhkT+nhdSPYBsuvcXtogKsDfZ7Yv0IBF3dGOFcaBvpLPFbz19fA0Md+eFTPUNdfilP/JEeJSe7S/+8vBg61/8yFbfYONtOj+MByJj7H73XY6CF9vufFEgPMraflc3FGMg0cx6VweUOLAA+sAA8IJouHqDMBAIyANLTUvwr90WI0AEEcAf+AKpX5TfPZx2WkLhpx1IAO9h5Asi//TT22n1BTEwfeMPdfcpBfx2WmN2egSBeRiHAHMQDP+O3ukV+mc0R/AappD/a3QSrGswXLfb/ovGS/ObhjHEGGBMMEYYMRQ7SgulgbKAnzpwlUepotR+6/U3P3oePYSeRT9BT6OfepJTI/6lOS+wBNOwjka/Zuf9z9mhhGGpSig9lCYsH5aNYkaxAymUIjySLkobHlsJpv5T1+g/M/7blr9k4WRxCBwLTgcn+m8NqMWplf5I2bbUP22xq5f3H2vp/2n59zz0/2E/H/ht/m9O5FHkNWQvsgPZh2xFNgFe5F1kM7IfeWcb/1kbr3fWxu/RbHf0CYLlkP9rPOKvMbetFilbLbsgu/6rDUT5xkVtbxb9sPD4CLJ/QBSvLhytfXlNQ0nSkrzysvLyAGzH/t3Q8sV2J6ZDzIN/08hjACg3wMSJv2n+8HpvmQUAZ/E3TagG3s5wbL2PI0VHxOzSUNsPNHyi0MA7hQ1ww7FLFJ6RPFAGGkAHGAIzYAXsgQvwgO0cAK/TCBALEkEKyADZIA+cBgWgGJSBy6AWNIIm0Ao6QA94CB6DJ2AKXitz4B1YBt/AGgRBWIgAMUBsEA8kBElA8pAqpAUZQhaQLeQCeUH+UCgUDSVCaVA2dAIqgEqgKqgBugV1QH3QEPQUmoEWoM/QTwQSgUcwIrgQwggZhCpCF2GOsEfsQ/gj9iMSEOmIY4iziFJEDeImogPxEPEEMY14h1hBAiQVkhnJh5RCqiL1kVZIV6QfMgJ5EJmFzEeWIuuQLbCnR5DTyCXkDxQGxYDiRUnB69UE5YAiofajDqJyUAWoy6ibqC7UCGoGtYzaRBPQnGgJtDraFO2M9kfHojPQ+ehL6BvobnjvzKG/YTAYZowIRgXeey6YQMwBTA7mPKYe044ZwrzCrGCxWDasBFYTa4UlYqOwGdhz2BrsXewwdg67SkFFwUMhT2FE4UoRSpFKkU9xhaKNYpjiDcUajhYnhFPHWeF8cPG4XFw5rgU3iJvDrVHSUYpQalLaUwZSplCepayj7KZ8RvmFioqKn0qNyoaKTHWI6izVVar7VDNUP/D0eHG8Pt4dH40/hq/Et+Of4r8QCARhgg7BlRBFOEaoItwjvCCsUjNQS1ObUvtQJ1MXUt+kHqb+QIOjEaLRpfGgSaDJp7lGM0izRIujFabVpyXSHqQtpL1FO067QsdAJ0dnRRdCl0N3ha6P7i09ll6Y3pDehz6dvoz+Hv0rBiSDAIM+A4khjaGcoZthjhHDKMJoyhjImM1YyzjAuMxEz6TI5MgUx1TIdIdpmhnJLMxsyhzMnMvcyDzG/JOFi0WXxZclk6WOZZjlOysHqw6rL2sWaz3rE9afbLxshmxBbMfZmties6PYxdlt2GPZL7B3sy9xMHJocJA4sjgaOSY5EZzinLacBzjLOPs5V7i4uYy5wrnOcd3jWuJm5tbhDuQ+xd3GvcDDwKPFQ+Y5xXOXZ5GXiVeXN5j3LG8X7zIfJ58JXzRfCd8A3xq/CL8Dfyp/Pf9zAUoBVQE/gVMCnQLLgjyCloKJgtWCk0I4IVWhAKEzQr1C34VFhJ2Ejwg3Cb8VYRUxFUkQqRZ5JkoQ1RbdL1oqOiqGEVMVCxI7L/ZYHCGuJB4gXig+KIGQUJYgS5yXGJJES6pJhkqWSo5L4aV0pWKkqqVmpJmlLaRTpZukP8gIyrjKHJfpldmUVZINli2XnZKjlzOTS5VrkfssLy5Pki+UH1UgKBgpJCs0K3xSlFD0VbygOKHEoGSpdESpU2lDWUU5QrlOeUFFUMVLpUhlXJVR1Vo1R/W+GlpNTy1ZrVXth7qyepR6o/pHDSmNII0rGm/3iOzx3VO+55UmvyZRs0RzWotXy0vrota0Np82UbtUe1ZHQMdH55LOG10x3UDdGt0PerJ6EXo39L7rq+sn6bcbIA2MDbIMBgzpDR0MCwxfGPEb+RtVGy0bKxkfMG43QZuYmxw3GTflMiWZVpkum6mYJZl1mePN7cwLzGctxC0iLFosEZZmlictn+0V2hu6t8kKWJlanbR6bi1ivd/6tg3Gxtqm0GbeVs420bbXjsHO0+6K3Td7Pftc+ykHUYdoh05HGkd3xyrH704GTiecpp1lnJOcH7qwu5Bdml2xro6ul1xX3AzdTrvNuSu5Z7iP7RPZF7evz4PdI9jjjieNJ9Hzmhfay8nritc60YpYSlzxNvUu8l4m6ZPOkN756Pic8lnw1fQ94fvGT9PvhN9bf03/k/4LAdoB+QFLZH1yAflToElgceD3IKugyqCtYKfg+hCKEK+QW6H0oUGhXWHcYXFhQ+ES4Rnh0/vV95/evxxhHnEpEorcF9kcxQhfsvujRaMPR8/EaMUUxqzGOsZei6OLC43rjxePz4x/k2CUUHEAdYB0oDORLzElcSZJN6nkIHTQ+2BnskByevLcIeNDl1MoU4JSHqXKpp5I/ZrmlNaSzpV+KP3VYePD1RnUGREZ40c0jhQfRR0lHx3IVMg8l7mZ5ZP1IFs2Oz97PYeU8+Avub/O/rV1zO/YQK5y7oU8TF5o3thx7eOXT9CdSDjx6qTlyZuneE9lnfp62vN0X75ifvEZyjPRZ6bPWpxtPid4Lu/cekFAwZNCvcL6Is6izKLv533OD1/QuVBXzFWcXfzzIvniRIlxyc1S4dL8MkxZTNl8uWN5b4VqRdUl9kvZlzYqQyunL9te7qpSqaq6wnkltxpRHV29UONe87jWoLa5TqqupJ65PvsquBp9dbHBq2Gs0byx85rqtbrrQteLbjDcyLoJ3Yy/udwU0DTd7NI8dMvsVmeLRsuN29K3K1v5WgvvMN3JbaNsS2/buptwd6U9vH2pw7/jVadn59Q953ujXTZdA93m3fd7jHru9er23r2veb+1T73v1gPVB00PlR/e7Ffqv/FI6dGNAeWBm4Mqg82P1R63DO0ZahvWHu4YMRjpGTUdffhk75OhMYexiXH38ekJn4m3T4OffpqMmVybOvQM/SzrOe3z/BecL0pfir2sn1aevjNjMNM/azc79Yr06t3ryNfrc+nzhPn8Nzxvqt7Kv21dMFp4vOi2OPcu/N3aUsZ7uvdFH0Q/XP+o87F/2Xl57lPEp63POV/YvlR+VfzauWK98uJbyLe171mrbKuXf6j+6P3p9PPNWuw6dv3shthGy6b55rOtkK2tcGIEcecqgIQrws8PgM+VABBcAGB4DACl225u9qsg4csHAn47QtLQO0QXMhIlhFpEl2A8sXzYKYpSXCClPOU61SC+mBBFvZdGjBZDO0vXTX+JIZMxjMmR2ZDFiTWELYP9IkcL5zDXEg+OV5BPl99LIEmwUOiW8KTITzEOcS0Jb8k0qSrpQZkvcqzy2gokxWylBuUhlQ9qBHVxDaM93poHtQq0r+sM6L7R2zRgNZQ2MjB2MgkyTTQ7Zn7Bos7yzt5+q0nreZuvdpA93oHFkdOJx1nARcRV0k3eXX2fvoe5p4MXiRjmfZD0l0+xb4Nft/9kwHIgRRBvsFqIXWhYWFZ4xf6OiBeRa9GsMUqx9nH74/MS6g8MJn48SJuscMghJS61KK0jfT4Df0ThqGtmalZV9kjO+jHhXKu8+OPlJx6d/HiaJl/ujMPZuHNFBR2Fb84TLigVu19MK7lSOlT2vYLzkm6l7+UjVZev9Fa/rtmqY62XvWrc4N4YcS3z+oUbV2+2Nt1r7rl1r+X27drWgjspbaS7Ou0s7YsdtzpT7hl34boedGf06Pas9V6/H9TH3zf54PhDi358/9Cj/AHXQe7B2cflQ37DosMLI1dGA5+IP3k3Vj0eNCE58f5p/eT+KcWp1Wetz1NeGL0kvBydLpjxmOWfXXh14/WROc95zTcCb2kX0IuId5RLHO9VPrh9PLLc8unrF8WvcStt37GrNj+Kfs6vS29Eb7Zsbe34XwC6inBB0iEbUW5oSnQtxhm+1dRTEHGsuIeU6VR6eDT+HuEwtSkNNc0EbSldML0KA5bhOWM/Uw9zO8sd1ma2a+xXOWo4K7nKuct4ynhL+Ur4SwXKBSuFqoRrRRpEr4u1iHdIdEs+kBqWnpB5LvtC7rn8M4VJxXGlJ8ojKoOqD9S61Ts0bu+5rlmrVa5doJOrm6YXqx9osM9wr5GOsZwJrymtGTBbNn9m0W1Zs/ek1QFrbxtTW1k7NnvIfsFh2PG2U4VzrkuCq6+blfuefSIeDJ6Q5wevKWKfdxOpwuekb7pfin9qQBo5LTA1KC04NSQtNC0sNTx1f2pEamRqVEr0oZhDsclxyfEHE5IOJCYmJh04mJAcfygOXh25aRXprYdHM94dRWayZ8lnm+R4/RV7LCe3PK/l+OMT8yfXT9Pli5zRPGtzzq8gsfB4Ufn5lguDxa8ufi/Fl/GVK1eYXfKojIBXSOGVuuqOmtHaN3U/r+IbuBtlrulet71BuhnZlN586lYFHMG6WkfuvGpbvPu4vbYjq9P/nkEXb9d690TPtd5j98l9+g+4Hnx7ONhf+Sh5wHFQ6jHq8eRQw3DGiPuo3BP0k6mxhvGsCfJT80n5KZ5nDM9pXjC85JvWmPGaPflqdE50PuctWMh8x7/06EPmss1n0a9UK6vfP/5YXHu/8WXH/xKgCzKHJhBuiPfIIOQqKhXNii7FKGEewjfaDYpCnBZumvIIlTzVS3w2YQ9hifo8jS0tFW033TF6TwY5RhTjKFMFcxyLJSsP6wrbA/YSjjhOKy5Rboh7kucaby5fIL+RgIDAJnyPahbOF4kStRYTFVsXH5KokIyXspTmk/4k0yF7XM5LXlr+h0InHB/slFmVp1SKVYlq/Goz6sUaHns49oxrntSy0iZoD+sU6JL0JPW+6N82SDe0MGI0mjIug+OFvOkPs3bzIxZWlszwfaLUimwtbf3VpsU22c7QntJ+wOG4o70Ti9Ok8wUXb1dR1w9uN90P7TPzYPZ4Dd8D0olO3pIkBGnS57pvnl+Iv3mABJmK/D7wcdD14PyQ2FDnMPVwjvCN/S8jOiLLojKiyTGWsXJxzHFr8bMJDw40JhYmHT4Ynux+yDRFOVUgjT4dSv90eD5j7sjC0Q+Zn7O+Zf/M2TyGyMXk4Y4TTtCeZDzFcpo9n/sM31nBcyIF4oVSRXLnFS+oFGtc1CrRLTUvI5WnVBRfaqucvLx6hblascamNqQuq77yalfDdOP6dZYbCjetmgKbD98qaWm9Pdb6qQ1/V7hdp2Nf54F7Z7rqunt6nvd+7aN5IPPQof/wo7ZBzGPPod4R89HZsaKJ2MmEZ5de4mZqXp95M/Qu+mPuV50fNdv+3/1Gt10wygBUaMMBAT437EoBKGuF80xV+PyoAMCaAIC9GkDYJwDoRTOAXM79OT8gOPGkALRwxikEFHa+cwSBVDiXvAGGwEeIBpKD7KEEOAd8AK0gOBB6iEDESUQbYhHJijRGxiKrkM9QtCgjVBKcky3DeVgAnHvNYYQwAZhqzEesEjYJ20NBS+FOUUXxHWeCK8J9pjSlLKXcoHKlasaz4hPwLwgGhBpqZuoU6o80njTDtEa0d+iU6RropenrGGQYrjGqMXYymTNNMPszr7LksYqzdrN5s0PwKtXjmOPM4pLlGuNO5hHlGeE9yCfB95T/qICawKLgeSEbYaxwm0iMqKzokliVuL+EiMSiZK1UpLSaDEKmX/asnI+8ggJSYVTxklKCsrWKsMqm6rhao/oxjaA9ZpriWnitD9ojOs26F/Uy9aMMvAwtjfSNtUzUTBXN5MxlLWQt5fbKWylba9jo2pra2dl7OoQ4JjnlOVe4tLqOu63sY/ZQ9yR5HSO2eX/2EfUl+V30f0nmDiQF1YaAULewu/ulIiqixKNvx7rEYxLuJeYdDD7knuqW7p+RfrQm6/lfrLmOxwtPDp9ePctbYFWUcaGrhKLMpqK08vsVu5rGeqaGxGuvblo1374tdudcO2VnYtdK78G+rf79A8NDAiPEJ7njNU9vTV1/Xvry0Iz9K+7XL+cL3lotbL2ree/8EbVc99n5K2ql4TvxB+PPvvW0Td2d+AEBNKACjIAXyABd2Psh4AgoAx1gFkJDEpAtlAhn/+MIDEIOzu2zES2IJSQP0h6ZjexCbqLUUbGoJtQqWgOdjO7GEDCOmFLY65rYv7DTFIoUmRQzOA3cOdwPSjfKdioRqlyqn/gA/ATBjNBGrUxdTyNJU00rRdtIp07XRW9DP8MQyUjBWMKkAXs7Ds4w77PGsAmxTbD/xWHIscl5myuBW4N7k6eLN4fPkV+A/5PAPcF8oSBhfREukZ+iT8Vui1+QiJW0khKXxkq/lemTrZM7JZ+kQFZ0UjJWVlORVhVW41Xn1GDfw6HJoyWkLaWjomugZ6/vZ5BgmGuUZ3zK5KzpBbNK8waLNsv+vc+tPtmgbTntVOxtHMId85wancdcNtxE3G32JXvUe84QmbzNSYd97vqu+WsEJJLvBqGCLUJOh86Ey+5PiRiJEoVPpKk4lfj8hNVE96R7yZKHzqZi0mLT32UQjzzNtM8ayrH+azTXJW/6BPmUZr7wWYYCZOGP85+LP5Z8LvtxCXWZ6Yp4jUGdz9UjjVevv2yiu2VyO/1OdztVp33XhZ6XfcwPDR8FDCYNpY8kPwkY139KmOx7Fv2C8WXpjOBs4WvsnN9821vCgt3i6XcD71EflD96L+d8uvp59MuXFfpvUt+NV4k/Dvw8sVa1fndjbHNxx/8IePfTAz5475sBH3jnl4IesAQxQbpQOFQKjSHwCG1ENKIW8RYpjPRFXkYuoRRQiaj7aGa0H/oWhhrji7mL5cAmwHdOLYpyHAF3APeBkkT5jMqZahzvhp8lhBDWqfNoxGh6aMl0dHR36MMYhBlmGEuZ/JnlmTdYOlmz2BzYhdhXOQY4q7iOcJN5rHhV+YT5WQTwghghpDBahFKUUYxPXEHCXJIslSldKzMquy4vrGCjeFCpWvmpKoWairqvxuk93Zor2sI6zrrZeu363wwljQKMr5i8N1MwT7Lo28tqFWjdZstoF2Lf6yjolOo846rvVrEP5xHmOUbU8q7yYfZN8/sS4EvuDeILTgqZCtsTXhKBjQyLmooxjW2Jl0ooS+RIyk9mOHQylSmt4DB/Rs1RlcyebMecxWOH8tiON57UPXU7X+lM4znZgmtFyudbi/UvPip1LVuoSKgkXC67olE9VhtZT3/1WqPTtc0bl5qsmzdaals92ujv9nWk3tvT9bWn5n7wA+V+6NHA4Pkh8ojC6MpY3cS+SdRU0XPhF+XTLDOxs/2vWees59PeVLy9u/BwcfDd/aU770s+ZHx0XhZd/vqp4XPoF6Evj78eWBFcufPN8dvy95RV3OrxH+w/Cn/S/8xag9bi1+bWLddvbHBtHN5Y2NTdLNj8smW5dWnb/5F+CvI7xweE1wMA/WJr64swANgTAGwc39paK93a2iiDk41nALQH7/7vs3PW0AJQ1LuNerrqlv79/8v/ABGq08zzBZgpAAACtmlUWHRYTUw6Y29tLmFkb2JlLnhtcAAAAAAAPHg6eG1wbWV0YSB4bWxuczp4PSJhZG9iZTpuczptZXRhLyIgeDp4bXB0az0iWE1QIENvcmUgNS40LjAiPgogICA8cmRmOlJERiB4bWxuczpyZGY9Imh0dHA6Ly93d3cudzMub3JnLzE5OTkvMDIvMjItcmRmLXN5bnRheC1ucyMiPgogICAgICA8cmRmOkRlc2NyaXB0aW9uIHJkZjphYm91dD0iIgogICAgICAgICAgICB4bWxuczpleGlmPSJodHRwOi8vbnMuYWRvYmUuY29tL2V4aWYvMS4wLyIKICAgICAgICAgICAgeG1sbnM6dGlmZj0iaHR0cDovL25zLmFkb2JlLmNvbS90aWZmLzEuMC8iPgogICAgICAgICA8ZXhpZjpQaXhlbFlEaW1lbnNpb24+NzQ8L2V4aWY6UGl4ZWxZRGltZW5zaW9uPgogICAgICAgICA8ZXhpZjpQaXhlbFhEaW1lbnNpb24+MTI2NzwvZXhpZjpQaXhlbFhEaW1lbnNpb24+CiAgICAgICAgIDx0aWZmOlJlc29sdXRpb25Vbml0PjI8L3RpZmY6UmVzb2x1dGlvblVuaXQ+CiAgICAgICAgIDx0aWZmOkNvbXByZXNzaW9uPjE8L3RpZmY6Q29tcHJlc3Npb24+CiAgICAgICAgIDx0aWZmOk9yaWVudGF0aW9uPjE8L3RpZmY6T3JpZW50YXRpb24+CiAgICAgICAgIDx0aWZmOlBob3RvbWV0cmljSW50ZXJwcmV0YXRpb24+MjwvdGlmZjpQaG90b21ldHJpY0ludGVycHJldGF0aW9uPgogICAgICA8L3JkZjpEZXNjcmlwdGlvbj4KICAgPC9yZGY6UkRGPgo8L3g6eG1wbWV0YT4KADmIQgAAMvFJREFUeAHt3Qd8DGkfB/BfOoKIGu20SJAgUU8vURO9tzjtlLvTuYZzuOPVzh3H4ZS7Uw6nlziinno60csRgqhBRKS/zzOzs7vZbAiCDb/52OzMPM8888x3ZsfOf595xsrZxS0BHChAAQpQgAIUoAAFKEABClCAAhSgAAUoQAGLF7C2+BqyghSgAAUoQAEKUIACFKAABShAAQpQgAIUoIAiwGAeDwQKUIACFKAABShAAQpQgAIUoAAFKEABCqQRAQbz0siOYjUpQAEKUIACFKAABShAAQpQgAIUoAAFKMBgHo8BClCAAhSgAAUoQAEKUIACFKAABShAAQqkEQEG89LIjmI1KUABClCAAhSgAAUoQAEKUIACFKAABSjAYB6PAQpQgAIUoAAFKEABClCAAhSgAAUoQAEKpBEBBvPSyI5iNSlAAQpQgAIUoAAFKEABClCAAhSgAAUowGAejwEKUIACFKAABShAAQpQgAIUoAAFKEABCqQRAQbz0siOYjUpQAEKUIACFKAABShAAQpQgAIUoAAFKMBgHo8BClCAAhSgAAUoQAEKUIACFKAABShAAQqkEQEG89LIjmI1KUABClCAAhSgAAUoQAEKUIACFKAABSjAYB6PAQpQgAIUoAAFKEABClCAAhSgAAUoQAEKpBEBBvPSyI5iNSlAAQpQgAIUoAAFKEABClCAAhSgAAUowGAejwEKUIACFKAABShAAQpQgAIUoAAFKEABCqQRAQbz0siOYjUpQAEKUIACFKAABShAAQpQgAIUoAAFKMBgHo8BClCAAhSgAAUoQAEKUIACFKAABShAAQqkEQEG89LIjmI1KUABClCAAhSgAAUoQAEKUIACFKAABSjAYB6PAQpQgAIUoAAFKEABClCAAhSgAAUoQAEKpBEBBvPSyI5iNSlAAQpQgAIUoAAFKEABClCAAhSgAAUowGAejwEKUIACFKAABShAAQpQgAIUoAAFKEABCqQRAQbz0siOYjUpQAEKUIACFKAABShAAQpQgAIUoAAFKGBLAgpQgAIUoAAFKEABClCAAhSgAAUoQIH3UyCsYVWgvAeQzwWwsVEREhIMGAlWunm6WVqS9g6Rro2bvstF9MvrErU8idJMylbS5B8zZZtNMypUG9XWK/Nrg2maNi3TtXHl3Wi9idJ0mYzLNl4uLha4dQtWp4OQZf8OueRrGaycXdy01b6WFbBQClCAAhSgAAUoQAEKUIACFKAABShAAcsSiMuZFY/6tAIK5jUKuOnqyGCeIbgnSbTImeaSXDBPyasLft4MQeZVf8Im7K4ONfXeeJtt6lmyJApQgAIUoAAFKEABClCAAhSgAAUokAYEEgyBvDRQ2zRZxdz58Kh5e1F1LRKYelvBYF7qWbIkClCAAhSgAAUoQAEKUIACFKAABShg8QJhDaupLfIsvqZpvIIu+fCwYq1U3wgG81KdlAVSgAIUoAAFKEABClCAAhSgAAUoQAFLFRAtxSqWsNTKvXP1ivcoKbYpdVvnMZj3zh0m3CAKUIACFKAABShAAQpQgAIUoAAFKPAMAdlPHoc3I5BDPFgklQcG81IZlMVRgAIUoAAFKEABClCAAhSgAAUoQAEKUEARsLFNdQgG81KdlAVSgAIUoAAFKEABClCAAhSgAAUoQAEKUOD1CDCY93pcWSoFKEABClCAAhSgAAUoQAEKUIACFLA8gdTtvs3yts8Sa5TK5gzmWeJOZp0oQAEKUIACFKAABShAAQpQgAIUoAAFKGBGgME8MyicRQEKUIACFKAABShAAQpQgAIUoAAFKEABSxRgMM8S9wrrRAEKUIACFKAABShAAQpQgAIUoAAFKEABMwIM5plB4SwKUIACFKAABShAAQpQgAIUoAAFKEABCliiAIN5lrhXWCcKUIACFKAABShAAQpQgAIUoAAFKEABCpgRYDDPDApnUYACFKAABShAAQpQgAIUoAAFKEABClDAEgUYzLPEvcI6UYACFKAABShAAQpQgAIUoAAFKEABClDAjACDeWZQOIsCFKAABShAAQpQgAIUoAAFKEABClCAApYowGCeJe4V1okCFKAABShAAQpQgAIUoAAFKEABClCAAmYEXjmY12/eChwJmGymaMMsO5uO2HxwO5b19VFmWlsVxw9LlmJ34GrsNHnt3r4ac4fWUfK9TNk21lXw2/bN2DK1h6ECzxiT+Rdv34Z/Zn72jFyWm6RYrliW2HL7OjG9BDO/6fBCFU8o3R07jhr2k7mF5fp+E1575g7WJ0fW+QzLA/7EzH7q/tUnpOKIrXU9TBfbuXLqp6lYatorqvYX03Hi4AoMLmlvtvL95q3G6e2/wNts6tuZ+TKfY0s6R0i1LxasRlDgVItyTXZvlv4Uu44GYt7HZcxmKdH/R5w6uhYjkjmGzC70mmeG+Y/F8aBN+K52BrNr6jlrBU7tmoP6CVZm0zmTAhSgAAUoQAEKUOD9EHjR6/3UVHkT172pWd83UlYWVwTWbIBjNevhWC31FeRTH8dq1MAPrnlSvwpWefBHnVoIrFwi9ctOYyW+cjDPrWghFPRuiPVDyyW76YP+6o1y+fKgaAl1Z1pb5Uelql4o4ekG9yIF4e7mqn+5FnVF8cKFlLJepmwrOKJw0Q9QppxXsvUxTqj2/UA0KJYXnk07YUT8K3MYF/1GxqVluXKlhGVxFBGWyqtAfrh7eqNNn5G4vivlgZ3IgoVRzEXsJ9fcydZdrq9w0TxwL15Qn6d1Uz/U9i6DNu2a6+e9yog8SQYELkgUsApvXAdtKpdGzdYt0fI9vaCX/3F90d0H+fJ5ovfI/maJ3dyKwKWYK7zfgJG5/WSuUi/zObakc0RMnZHoXac48nrWx5hnnOfMbfvbmDdu8kfwcPkAzfoNMRt8LOzqitwurihc0HxAOLXr/OXcRfj7OT+W+FcohfzZC6J+0xZmV1/Kww25XQsgr9lUzqQABShAAQpQgAIUeF8EXvR6PzVdUvu6NzXr9tbKyuiM6k5OKO2UGUUzZlJehR0zoXTWXBhYqiquVi2VulUrkBcdcmVDnUIF0TElJecvhj1NamB41rQX63ne5r3yFoVHOYh12KBy535mLxytvAbh40o5lXpEPg7X1ycmLgExZ9bBpbAXXAp4Gl4iUFG5z69KvpctG3FATGyMfl3JjcjWPwMaeYhksQCc0XZhylrzJVfe25wfc2E18glL7eWStxvWXnyE9K61MWlE3RRVzT5CzRb7vNyCKy7WkOvv/lMwbdEyDB8+9HlLpii9ddMG+NCzAtr1aKPP77h2Pkb8shTTR36HFVYJ+vnv04j70F4on8kKccI/24eNMMRM8DkqNl7snBg8fAMw5vaTudW+7OfYEs4RcnuGf1IHTuJdniU+bNNHzrLYwcFuIJp7iNrKymYvha8+zpqkrlbR8twYj+efIZMs+sIzZIvapvXLoUIj32cG4dU6JV/8mzyuk68FUyhAAQpQgAIUoAAFLEJAfNdNyfV+atc1ta97U7t+b6W8WPXa/HzwfjiuW6G+1i6H1Y7jOCnS8ucsgpm5XjnsZNi04PMYcuY/TDl8FIsMc5Mda1YoPypnzQ5/D7XBWLIZ02DCK6vaQxcByl4Rk76vl4Rg7LhW0F9O2mdMnG777JYhr1R24jWZnbrX81NUz26NS8umY01IHPLUbo1ub6BFk9nKvPLMxJZx8XvQadRmRItyM2fP9WKlR+v2aQqXio3fjJFDRmDGtsgULvHsbBceP1UyxETf0WeMTziDmaO/wYjZ2/Tz3reR4a3EbZNxlzBu4hYRP3dB22nJ30b9WIcTUcr2tTGZ20/mVvZKn+O3fI6wt+2G9uLHiPgLmzF541VY56uI+Y1NzmPmNvotzes83xc5RZhu9egZuAo71Og8KvmaRIjA72seEsT/D0+jxX/w4guXdky+5lWyeApQgAIUoAAFKEABCrwWgdS+7n0tlXxbhVqnS7zmsHMYeP2BmGeDbHap2FVOwkP8eOQIBp29mXh9yUwdilEbIcXGqTGGZLKlydmvHMyDrQ0QGYJTd+Ph3b5voj6N5O1pnbyyIfTkCaWlkF0SIhlqesbwSmU/o1xd0iL/amIsDGv7/oJxW46L4+wDdB3b9PkLppEcCSKUp7W+kfvi8s1z2PV9M33t5W2bm86fxfXN/9PPU/K7+GBHUBDui/zyFfyMPtrkgtF1vsJFk7Jrf/Ejjp83lBF6eou+Tz3/byZh18H9uKMr/37IEaXPQlmfDWK9+7qUVOpTrP0U3Ak5h1tHF6GBlUg7fQbBG8bo6ypv89wsytHqeT94H9YZ9ZUot/nizdPYNfdn7Eq0PUsTBW17TluIi8Fn9eWEBG3A1I4pu01bX5nXPBLZdAJq57PDvf3b8ePUn3EwPAFFGrdN9HlTqyBOVtG2aL1wBUKFb9SmU7gffABbTG5zrPXFpET7J0T0VzbLqI+1cVsO4P75lYnKrznuT2F0BNN8aiS7n8z2afZKn+O3e45oPb0FPhCwh9eNwfipW8V5zA71+g5/zXv75Yq3s2mBbtXyi1PaCXSb/RM2HhO1da2CaWb7oYtD9jY/4KT+uD+JoICpifZ3Sj5fzzqn1By3ANevz0Pp9OI/b/siWHhdHIs3j2N9ClsKP0vBo9dYHDptOL/c+W8fVk7q/qxFmEYBClCAAhSgAAUo8B4JfDlzSaJrvPO7FuJTkz6j/7dkDULE9aZ6PXkcm6Z+p1wfX1hu/o4z0+vemuOWi2X3Y+nMOThr/L167bj3SPoFNtXKCX/UaoioVm2Q0Fq+WuJk1cS9vX9cpiputW6FhHatlVdw3Yr4s0FjJLSoCeUK3Son9ojlHjYoq67YKjN+bVAfUf4tkdBZLNe5JW43q4Eh2XJhd9vmuOauNi0rUbQiYj9qiag2NeEnGxNmc8O2Vn5I6NYCCd3Fq6sfNlSQV37qMLVpI1GWD1b61kZUz+ZI+Lge+ljYDYKvHsyDaPlj8wRzft4KpHfDyKmGYNGs4S1ED3bXMf3nozJXksHOuTh+mTQec2ZOMbymjjS6Hevly06yMpMZMtDjVyQdIs/sxBjreFwe/hfOiRYkHs3bmL1d2GRxy5uMTRr0mDaojvAHHt29BSvYI70YT5fR0KpI9jeQXtwl7ZBO3ioNyOCfjFsXqVMXhR6fxoJf5mHF3ivIJG59HrZmhdF+UbLr/8Q6ZoQsVSvbo/8sLB3QEPkdHmPPmuX4fc0u3EqXD81bNYK87a5bl0bwcHqKfVs2Ys78ZTh0x1b0WfgJln/6FJvXbcC2s2qLvMhrQVizfjPWb9yKLVaOyOQoapxJrb9sMXX+t76iL8b0OLllLX6evwqnIjKjSuuh2PtTJ33dbMQvAR6+dZH3wSmxPQux6WSo2B4vjAwYreQJ6/Uzvm9VHulvH8fcKTOUut5zLIKWvT/Sl2EJIz/2rSn2YAT+njEdspXiH9svKp+3QZ/rTmJaJWNFE6j0BdCiTkEcC1guXNbjv6jMKNO0L3ZNVD+bYf2nY9mAxmL/3EfgokWY89cuPM1eEK1Hz8FsXasze1txTGTIlKiPskz28tcWe2TMcDjZ/bTJ7C3QL/85fpvnCHms+td1FT9WnMfsCXeQcOx/2HzxKdKXrInvS6qfGY3dEt6rfNcB7vZWOLthmVKdATN3iE+0I/z6DzKpnjhGkA41m9ZC9PFtmCM+F7uuRCKvd33MDhyn5E3J5+t555RV+//BqoB9uC1b5uEpDm/ahPUB27B9z26T+rzYpKzbom9bonC629gwf55yjJ+65/Be96f5YoLMTQEKUIACFKAABd5tgX4LA/F5U2+kv38Ky8T3xSU7z8LZtTzGiGta7U68ket2oWeNYrC6eVKX5wrKtG6tdGuUIVces0Cm172ZlJvjnFG3aTU8OrRVXNuuxonQeOQt3wJbU+EHbLOVsMCZWgMi46rVdy2DufmdxaxYXH8srgdEIG9J3drwz5YJV+5cxYhjJ7DgzhN45C6Kq1WKKYsW8q6J2UVzizuNniLgyiXMuBKKdNk+QDtnce1l74DKSi5bZLIVcQE7talYv1qV0CNHRoTeuYHJJ85j6c2HyJA5B3oWT48NV0IQGKa2yHvyOAwrrlzH6uAb2GBVGGcalUStzDbYcfEivj50Htsf28C3ZFkEeIprVzE4iDZrcMiM5vky4fKtO1hw+ip+ScUGhspKXvGPWtNXLAQ2Ngid2Rdrep9G05afoFu/1ZjceTxauafDjQ2/4Zfgghhhsg7Z7xeyu6NtR3eTlAjEB07GinW6m7JeomyTAs1Oqv1gxSBg7lglPSZuJebt6oPxPl74RvQz1fzX+2aXs8iZwtLOrQEuna6pr56jcxYRdhF9CYQex4zRW4C6hjR9Jt2I3BVykBfnygERdhgFKnVQZ2I8DoiT4XgfNwye1BRrvniim2940/rak3NkP4TfdqkuQmgPsairD/puS5q/VmH1w6qVkG5kBM5c7YqCJUrgpz5f4m/xC8e+YjkQvHseegzdpGSTgRU5aHXttagz8osP2NF5Q+EzbLOSZjfiALZeGAvPZh3Qst8iLNW25+YOFK7WS8ljY70NWy7PRelCRZRWSHaeBUVd47B5dHcM1Y45Jafl/JH9Tsp+0GKubNZ7/vXpSgxt8gXKdhB9uE00apEkW8GJYe/Yemg07a4y/t03p7DnyhfwaNkdrYaeQ/MuNZT9M79RPQwOilLy9N06AXdnNkXToWPQc91AZZ44esz2vSdP1j99bX4/6RZM+vYSn+O3fY5wG9oJFUSrsuDVy/T9NLZZuAux39ZFi6E9MazztKTb+Zbm6Pv/jLuKOUPWyA8z0q/5HFu/9UXDCnVF/4pjMUn8aKEO6jHycM8clGk1UZ01egwWHzyBBiXriZZ8o3G+V0o+X8lvrPycOq/5FZ+tO40tFz9EzsirmNJtEMwHe5Mvx1zKQ79icBEJwZumw//rlWqWr3U5Lew/WHP15zwKUIACFKAABShAgdcn4GAr4hE+ooVV+Cl082ql//4ZMG0V/mhVAn1E46P58wuhfTnRr3/YcTQq3wZHddUJmLZR5Cks4k/mm2AZX/eqi6jfq29t+B4VevyhzLJeFoHgjR1RqFxFMR2oK/ndfpPf/d3yl0GCeCUaEqLF9flBDHggrkMKFUOrTLa4fO0o3P+9IFsSARfO4mHdZvgsd0F0wE30KJBdzIzBrC0B6B2mXrt8erU8YquLa3aR/4FR4VpcoGxG2WTpCb76ex8WJxjtN2X0ChZ8WBvXnNPhys3zaLv3ulJCN/Hk3WLi2mjN7gA0Oy+aM4m8445fw/6PasOnuNiGkwfE9ZR6YbFl7wbUPSnyWOCQCi3z1K2S7aWa/fA34sStqn3E7U6LetWHvbiw/KH7AkRnF5FUk0Fc2yPmQgCy5nY3eZURwQRdIE+3zIuWbbKqJJNaP1jAbRwJr4w+PT8Sr7aICros8tqgmv+oJMtY/IzoJ7h56zbu3gtTXsFng7Bq/njk8m6jD0SkZBtkfPvShr8SZf3ltwNKz4h2pn0eJsqlTsinkObKKg780CB94Mk0W3zpTvh1yWL8u28bzgXtwsnLXZUHDGgPSHGzV0+KdvY5TBfVT7vnlVH+UGz8SgQqdYMMyB68Kvr7s3dCiVJqpF4mXdq1S8siYhyiraL85DvmUFqdLRO3Vz8U+7zp7AM4tW891i74EcM61dLnt4SRHkMail8ngBvHrqBZp87K8drBNxynxK8+1i6mfbiJcKzoV2/+1Hv6qkfHzsM/okUZRMu6zGL/5M8q8oj9owXyZMZM67bgYmQC7Jyzpbhlakr2k74SYuRFP8dv8xwh6z20VTnxNw6nzsSgs3KO+AjdQ8+Jow7IVbuJ/lc9mfdtD1r/n7h2CWFNW6nntE6+CDolW7ma618xBoGilafxMPufS2JStLx0tMaLfL6MyzAdVz5vcqbYmXL/JzckKL9qJpcq5xv+A5XH6hlxm3mBZuMQfHQLAlfMxk+ft3/WwkyjAAUoQAEKUIACFHhPBML88io//N4S3RMZ/5C8as0x5Zo2S15XRBTIhizC48beLfpAnuRZtWa/0pjB1kYN5KSMLAb71+h+YBYLaLEPR3Fd9b4M8ur95v0b+OG/i/jlvys4p2tDEHLrLOoEqQG0ls4ZxVW3iOnlKY5Lvo1xvVFjBPv5wj+LuBCwFiniTrzsom+9uCd39YE8xe9GME6Ih6fKxgrmhtV3HonZGbCoU1NcbOKD9dXLoWdeuSZ1KG+tLmhrI+8yU4eKTnLcGg29fBDczhfX2/siuHVlVBQt/ux1QTxlhQkRWBlkuA7RlreU99RpmafbGucFA7G0WxV06DQURcS8swunY57Z2+5efPNTs+w2Uxor/WBBhHOGz/oxSWWsi6r9TJlrVZYksyXMEMdqzKV/ULX2FymojQh26QYrK/OX1zFKmFzLpd5+a5hK4Vgyx7xsZXZ+Yy+l6eyVk2dw8mIo7mfwRMvK+UUcIZlPaHKrjIvGfZPjK1pZrx1y5lAPbUNIz7QQtdVZhjXDxIn8CtZ2rgtvt8KoWqeoeDVEO785KNle12rJdNE3OC37QfOX/aCJoUCznpjXzHTl1qjdW+z3dSMMCXGGUcOYukPkqU6eReMjk7aYVPI6ZETOZB4Ck2CfvKZhPc8eS83PsemaUrNs2Udhw3zqfwK+X42Cr+nKdP1rzhu22jTlrUwval9NXW/BWpg7q1aSOhRp3BL1RWtVwxcaswdJ4uVS8PlSF3j2OUVVTFy06dTli7fFrBKms/XTGR1ktM9OCfrLjofrFuuHib92QOVSRVGycg2UFa92rRugQfmPEn0h0xfAEQpQgAIUoAAFKECB90rgacQDs9trnz6zMl/ebZQpd/5EeRzuKs25Es1LyYQs630e5FViePg1DD4RrDIcP4ANDVvB18UDi/JdQEfxsFEtGhcW/ghnoxJEEwLdEB6B6KcPcVY3aWOXDo3E+HotXbzHyOBgMhcVq0QDoVbh3visQA6UyOgEvyzO8Cv4Adqc+Ad1jt41KsVoVBewOxP2CHesDe3bzou6hd6TjSG0IT5Ra0BtrqW8p2owT25U34Er0WpjV9Eq7wJG6W73Sn5jo5NPMpPyQmWb6UNOFilv1+xev7gYC8O8Xl9id+acygWiTLN6dAuxNfpiaoeSSj9Tfbd9J2enjeE5T/2MFg3S5GBr1LouvFFVeIoAWoxRM2J5Iirm10I0SzIEKbq0Lq/0vRcTbWgxaWNr/tCRF9qXbsfCM19JTBb9ihm3/pLrL1bfU2lldnZeT1Qe9q+chTD/KUgQwTw7ZS3iRBAtWpGJwfhptsoMoz/Hr9xGhyIfoK3oM27exENKinyARpk8GcTPIRexY2ukuLXYaIFnjMrbAT8SLznIMtaenINKlWuJPgInvVCrxmes4qWTKk/ooOyjhweWoufUvciTW/3PRxZ4I9QBQ2YMQ/kydUUfbt9hmLxlNlYE7cTDBjr1dMYK3a3idjYdUbmQOADibiEhPhDX7oj9U6g8xsZb42vdrZeRtSshv7ilNPLMBSXgU0+psRo80Srf+EPR5Fz/SJWU7SdtWeP3F/ocK89jNl762eMvVHYy5wi5hhlKH4XAwRmjMPF4GPJmzqRb8WNct6qKXye0FP1rdoC3COZpzfKfXbPXl6r0/ym6NJC3CQzq+zMScrvoVxZ+MxRVvpqErh4lMOibOtg0JlCXlg51P/YHts3S521fuYgYj0OMeMptSj5f0brA8rPOKfJptpEyjmwT98yn2Z7eeQ63v6yJIg3bKrfIrzAK0of1mgLfguK/+9Cb+h+H5HlmYHf19nq5ASPX7UX/cl7oI/p8NG3ZLdM5UIACFKAABShAAQq8YwLJfJfPsuGScidNgaoNxR1HC/Tf1ev6FFOuNs+ePgyn9dYIiWsF99LVMUJcE8k+9OXw6Vd11DvGZEswDi8mYJ244Yff2euI8sqPth6VRTBvF1aEPxFXGs4Ii7gOv30X1NtstTXoGpOcfhKHkhmzYGjJbFgfpLvTrIQ7Ksin4T6jLcKKoKNYESQKk7fZZiuJW37uqPaBuLYRwbwH8eq+NX6a7ckIcd3sbI0rwQf1t9lqVTFp16SfbYkj5iMyL1xTw0W/7CS+55R4lDr7t74ViBZIMi1Wdm4/Z+oEEXww7Hg5en7NfHy39oQu+0uW7eKJJeIppsZlwy4GodF5UTqTFW4EzsOQtTtMqwTrdbfRqt5KVK/QUHywx+o/2EkyWtiMZALV+lo6BocrF9MFGvfGgrDsOI1CaNe5vpIeqwvQaA/AgHNFnA+YgZmL/0WuWr74yLeoCJCpfXEl2FRGeEQCrAtVx9/iYSX/XDyM0af1q1FGFiw/gEYDqqDrmgBk+W0dLomGzvVa+6HQ3UDk/f6m0rzZrfkwjDkzCxeyVcXXX/oqyz3VBQsDt55FRJcyIqg4GDPDvRApbtPe039/opVM/20bBvt0QflBM7Ay1xIEXrVBg/btUV58KIM3rNUH4WRw0nSQt2/KwUm8xgXuRa8CkdiwNhB7j/0HhyI14S7KQOhd/GcUUFAWeMN/ZGBxQEMPsdbrmNz4WwTq/pMxrsayuTWRMKAqWnzdC8PaTxVJ6lmuxugALMj9O/Y+yIbmXdsoD0a4tHqV4nJ/9VE07F0BvS/+Dcc5f+JyOg90Eg8lySqOg4A//6cU/0j8QiKf7jxk43S4/H0O7nWaoLHSUs0gam4/7e47Rm9vXE+tVZWcZ+nniKDdj+En+iiMD9mO+mMWJ94MZSoAM5tXwxeVSuObvmXRfNphM3ne3Kzv+ssvHXHYMqU3ftt6P8mKN+z8DX7X+qN8C394K8E89RhxqjkI/8zNjbnbb6B2h45oXNABMRc3o6fo5zJa9C35vM9XSs4pcfF7cETc+l7eowjGLJ2IsqefIMvTg/h8wrpE9Uw49gP+3Ncc/Su54deru9Fl4w4cvfEUBUpXQn0RZLQXx+aWeT8py8inhq3sUhgHAjZi078ncB+uqFXEWaTdx7U1osWp4ce1ROvgBAUoQAEKUIACFKDAuyNgl8z1/snFs7Hq0G3xQ29ZrNj1G+Yu2A57z7ro1rqMuFS6jsWD1yJGXFdNX+WPqaIPvYE39qP+mRuwzV4Abi6iYYgcxO2WLzIYohnislnXiOZFlk/reQ1XiEZbcnkflhXOjU6ZXbDFPRvqnLuI3eLhFjXyeuNSjWyYfvUesjplQ9P8eeFp+xgdV2xGu3NX0aBsIVT3qIXgfA9x3zodvDLJW2LFYG6XWOXB/jYfovjTB1h+5Qb2P45G6by5lMZDN5+oDZG2hzxAhFh/iQIlsSA6K56mt0XgmWu4nq8Ymlb1xXYXcZfe3aconDMnWhTMiYxhV+G0Sm0spK7Ycv++ejBPlvDoDo4aBT7WTpiAtUbbLC/6RDspMRhux4oUwVD5AIwWrd2VFOM/t+z+U4N5r1K2syvq+boaF6uMP3gga3IXSzvNMXvRJ58U+tPyQ6gugh1VR/oA+pYsSYqynBkiOBX11NBqzlzFZADl28WlMalDGfh17Q0/kenBxSBc+sBTd8ux/HyoT7y9fvAIrErXxvCJYvvFEBcZioUjWqmtYsTF+dBZm7Dhy4ao0LoDKkR64VDPY2o4MFrdv9vGd8OwfAvxVfPyaN6nj1IG4h5i57IdsBVPnh2zthhGN/HEpxN/UNJCz55HRDE3pNPdZmu3ZRR+/qcSvqheCG36dBN5nsJxzcFEwXj7LePQ8tusWPxFY9Ts2As1lZLicGXnEpTp8asyJf/IE6txi8L4hGsIfZQAT8coESITneiv3wPfT33h17GreMklxC2oYcGY980n+l9x1Llv/m9k7erwEoHFezs24mczgTxZo+wT52HfR5VRqfSHYkoE8+RTaKNDsOu8Lfz6DFD2swzwXT+4EuX7qC7bR/njy+xLMKKVN/wHfqlumNg/e+d9j06/hinTY5tNQuVjo1De2wdDxAtx93H4aAjKemcXH2P11w2z+2m1aM1o+tCTV/kcv4VzhGfeEOU/gL1/GI4jFcnwd8LoVfhY3C7uVaM28BaDeTLgW8kjhzilHcC4ZB7aExU7A38e6iS+0IhOZ0Vr2f1KG/WnOLL3P3j6tscUNZaO8JBjGFW1n/IfZUo+Xyk5p0ixgf9bhLozusO1RmMMqSE+j2cckgTzZL5RLaoBS9bg46rFUEX0+1dFzhRDdPgdBC6YgLY65+1LNmJ/nd740LcVKoiXMsjzy4zxaebHF7XS/EsBClCAAhSgAAUo8DICSiwhmev9Ire2omKTnsi54We0966EwaMqKauICxfXeINb6K+rFvZtDjyegQGNKsDVzRVP74uHJUw5ghoD2yJ3jGjhZWaQjV9i5Hzdda+WRd7Zog3OG64rt2Zmfc71uZb/XXiX19xPY9W764y3x//kf/Ct7IZK+QqJPtgOo2bAIeyoXxo1cnyAyeKlDPHR2HklGEoTiouHRBdYsTjgnh8emTIju+j2Z+uF84jLJ2I74jJXG9QOpMRUwg2svnYPxQrlQLeSWSEjB3K4L+JTQwJ1LY6uHcOkGzkxMk8mdPJ0E6lxyHBpHfLttcOZsgVR09VVvJTFEB31GAsu/KdOpIG/Vs4ubuaP1BRW/mkpD1Q6ceq5gY+SPtVhu/Wf5+YzXu3rKFs+9bG0CNg979a4kj4lEbRVttV8twa5/U0bFxSt67Zjy9aniC5dDY0S9mPzCeW0BLmfgsR+kkOdJg2RSTwZZtXanUkQZDk+tXPg7nP2aZ0mNWAVcR+BJpZaPSKubFHW/UCst5ZJWbJubQtkhJYnSSV0M7R6XhH1NN2v5o47eVw1wXn9Nsti5LzGObKJTvrDsMqkrsmt1xLnS9c6JS8q26b5PVljaCVrWmdplzlCdOyp2+em6aV8GqCIY6T+GKgr9lOgSV5tPcntp9fxOdbq+TrL1tbxrr2rn13xi5Q4zrXPIcT5YJU4H5gbnvX5kvm1MpI7p2hlauWYO59oebR3eZzJjmwzipB7cp9HdTsKiAd2GI5PbXm+U4ACFKAABShAAQpQQP7w3aRRZjyOCElyPWruOuJp0x8QPtMPIcvGwLv/whQB1hVxA9NrXXPXtikq7E1mErekhv0+WgTEjFaq9Z2uzUv0dFhd0zh9mm45bVo2ndPGTd9lVn3ZIjGLC9pktEL441vYKJ9aq6WJ+40aZAnH3/fFPP1QABfaVUChxyGwXSvu1tPKlunKuLpej6xZkD+daBYZeUNdXsunlZ0tl3iarh0ePxLp93TlizT3fLlEfAgIiryNM/fEiH45J9TPFo5Nxv0o6tN0I1rZ+rpodZLvOi+jNOfvPxcNJ4zmy7RXGF45mPcK6+aiFKAABShAAQpQgAIUoAAFKEABClDgjQpM3n0cXYvY4OLRgwg6fRmPMhZGw0aVkNMmAgt7Vke/dc++8+2NVvZ1rOxtBvPk9miBMWVcDXDVLl8PWws54Xb4fewNe4gbMTbwyZsX7ulscPzSQXj9G2yynFxYLKuVlSj4KNPEYBxUU+cY5dcF1rTllfy6TMo8o7ITpekWMC5bK0P/rivbaLnUDubJG+A4UIACFKAABShAAQpQgAIUoAAFKECB90Kgz7fT4DrMHxVLVYard2Vlm+PCb2L1tDHvfiDPQvfwtoPHsMDRC02yO6NZpqxqLRNicejqaZSXgTwOiQTYMi8RBycoQAEKUIACFKAABShAAQpQgAIUoMA7LGCBLfMMLeyM3E1byGkt32SWJGlGidqoces5rVjTNG1aX6aZshOl6RYwLlsrQ//++lvmWWvbw3cKUIACFKAABShAAQpQgAIUoAAFKEABClDAsgUYzLPs/cPaUYACFKAABShAAQpQgAIUoAAFKEABClBAL8Bgnp6CIxSgAAUoQAEKUIACFKAABShAAQpQgAIUsGwBBvMse/+wdhSgAAUoQAEKUIACFKAABShAAQpQgAIU0AswmKen4AgFKEABClCAAhSgAAUoQAEKUIACFKAABSxbgME8y94/rB0FKEABClCAAhSgAAUoQAEKUIACFKAABfQCDObpKThCAQpQgAIUoAAFKEABClCAAhSgAAUoQAHLFmAwz7L3D2tHAQpQgAIUoAAFKEABClCAAhSgAAUoQAG9AIN5egqOUIACFKAABShAAQpQgAIUoAAFKECBd1zA6h3fPkvbvLhYIJXNGcyztJ3M+lCAAhSgAAUoQAEKUIACFKAABShAgdcpcOX66yydZRsL3Ak1nkqVcQbzUoWRhVCAAhSgAAUoQAEKUIACFKAABShAgTQi8O+pNFLRtF9N61MnUn0jGMxLdVIWSAEKUIACFKAABShAAQpQgAIUoAAFLFfAOWA3wNZ5r38HhYbAaf+OVF8Pg3mpTsoCKUABClCAAhSgAAUoQAEKUIACFKCApQqIDtzEP6cZfzGg9zp30c0QZF65WNdfXup2mmfl7OKW8DrrzrIpQAEKUIACFKAABShAAQpQgAIUoAAFLElAFwoSb2G+VYHynkA+F8DGRq1kglGoKEEXiNJmmb7LyKDpPG1alqZfXjfTbJrOJlGanGembDlbyWecZrSgNqqtV+bXBtM0bVqma+PKu1HZidJ0mYzLNl5OPuzi1i1YnT6BLPt2GD34QpSXioNVghhSsTwWZSQQHSN2Iod3UOARVoyZhj3RTijrnR1ZXaugYan87+B2po1Nir13Aqu2nEfEoxCcuBSHjsMHoWzG1D1Rpg2Jd7+W9na27/5GcgspQAEKUOCNCfC7evLUFxb0gFfPRzgUvhTFbY2/Vz3C1sn94fvVQvj8tBMBfSorhTw6sxI5SrcFGn6PU4uHwtXRsEzcrX/RJX91rLLtjINhs1HcwQpPziyFc+lOmHb0Fnp6ZBVlROPhw3g4OaUzW6kLCzqg7Awf3NjXHRl1OZKUEXEa/s7euPfTblGv8rpcj/Bn4+LoYj0ct9b0QRb9sivF+tvCbeYRBHUrqZsbjXW9i6Pd72Wx7+5SlHKIQ6ytLQzfPu5gvH1BfNNwkq6sxHWWZmV6Z8CRhz+hqG0kVrQvhg7Ok/BoRhs44Iky3Xn1h9gVugRlnNQb5KxCNsO+sB/QehbuLeqGOyu/RrF2EzHtoHApLV3kEILxFUphtM1IXNrXHy5RZ9A8kxcaHr2p2kVFICLWHo6OdricguUzC/vs3r9j/70NKKXtp9hr+DaDOybaNMLWKwvxYS57Zc2HppdBlYFBaDr/AJa1Sgd/sd50y47j12bFlHTTP5eXDoRnl+tJj5uHR9A8RyUE9JiLezM66fZhLPZP7oAaX63C8ssRaJxXrNNoW1Ja9qOjfyBHxe74aNFRzG4tglHKcBNTK3hi+KkeOP7wfyiU6BgG4i6sQgaPNpgd9BAfuWcwrErn8INdXxwWyxXVLRd9YT0yeTRHs5kHsLSbtyF/Gh2TISDtFRcXB/mKiYlBbGysMi4SX2rL7PhdXXGzsrIS8VAb2Irzh52dnTIup+V87fVSwCYLGc5NJgmcpAAFkhOwR1YXR9iGRuLEgYvIZleMwbzkqN7A/LgHN3Do6FkkODrAztEZGXlWewPqXAUFKEABClCAAu+yQIzYuNi4VVg0ewFKZXcQUzG4d+E4/hj1E47Ipis9ZmOeLpAnHTIXb4GTCz6Dp/8weGb9C2PnfoWSzg64fW4nun05RWbBzzvHKoE8ZcLkz4UFn8Cz++8iuHJPBFcym6SmcNIxD6p6ZUL/AZ9gsst4lLOPROZytVG0QTVgYD98+UMOdC6TAY+ze6OqruHR+d5lMMx+PVp7Zsbp5ZPQdd5VeHw7CyVEkOv0HH+U7xuHmcv7wbtIdsRd24f9EI013HIrwajEdY7HtmmrET34TzUA9PAsJq0IxfDAKiKQJ4cMaPj1BMSu8EeNPAPwR2BH5I2+igX1/NWNc7KXJaOQX1cMwBT0q1Af0SunoGqOp9g5pSu+ORaOQQHNINpMmQwiSNilOGSQcN8DEYBMwfJPTEpQJm3zo/+uqRhXrQ9q5HdEt3798Oj8Qiz/+76S7Cz+hh3bg2WIx8ZKhROXEHENG1ftQLi9PW5sP4y4+Eis/H0BPFxcUMCzPLwLiKWdymCUCOIFfNIVtRCGCV3K4kbgLHQbtQro/xcaykCeDHgab4sI+iIFZWf2boJZ9XOgV0dvWN1Zgu7lnLBtjD9GHnuEPqt7GgXynuDghvU4F5GAqJDdyjbsX74Q6UvkQY5CHqjmVUgEX/JjwPYJGFdLBCWrPsUfY9ogW1gQRnTqBxvruhjYrHTibU+jUzKgpA1akEm+y6Ce1tZLe9fypeSdP7yLRng6W/mu2VpbW+uDeFp6Sjyfl4eXvc8TYjoFkgikQ62PB4j/iDhYgoBDkQYY/78GllAV1oECFKAABShAAQq8EwLOudyV7Zg4oLt+e6ysvNCy+wj092+J5pVL6IJU+mQUbTsFF/JXEd/LPsVX3UQrPd1Qv/s3GDj4M9RylSEhdbBN76iMOIiWK3KwdcypvNvbGIIMyoxn/LG1tdOlape0WeC/eBF2l2iCr9vWV9KmHb2Hnl3GYMLuPfj8y/aYL+bWFq2rqlaKga1Nc8xc3AAr2zZBRRGkkkPLL3/HD5/7KK3xXBsOwYhm/dGjueFbf6keP+D48KZKunGd40IOoN+xh5j4q5dSzs1/A3Dcug6meOVWpuWfDCXb4cyGR+jo9xna1fxFmd/lx7kYtfELjHxoj/RyjkNRjLm8Gw5DmmKwbr3Sfeyqdehfp4CyjPyjtk5Ut9veyQ7W1i5QNFK4vL4goxHnij0QesINvy9aioOXbiKz13jsn+COJaVq40RUNI4umwjbspNQWtdqT1s0+u4ZNOvWTZtU3kf3UY8bpbWcDOaJoVSPX7ATOVDjk0FoMEeZhRbf/o6Jn6ueck6ibRHTKSs7C7os/xf2X/uj64B2+E0WJIYRi/ZhqG8RdUL+jb2FDc27YJwITGvDvFGfYp6c6LFItBgspLhmqfIZzmzOiMH1eqGz3ww1a5lPsHbht/gw67vzyAEtqCTf5UsG72TQ6WWCeCqS2H9smadRJAreGVvrM6TCCG+zTQXE5Ipg0/3kZDifAhSgwIsL8AvCi5txCQpQgAIUSF6A39WTt3nVlKiICBGhk6U4wMFBC7a9SqmxiIoSpZmUFSVmOjiobd8MpcciIiJOtLKySZRfrZOtkl/eoitvNT38eIO4jTgOEQ9FfdM5wtGkfKVMceuhuPlQrN9auZXVsB7DmLwNM7vXLhy+L27NFC3KlNtd91XAo4nNkgQ9xb2MSis80QhKrV9sFMRWwHTVSn3FKmwcxR1BhlWleOxFl496eBsPRLAtl5MhoBp3ZT0yuDVHn2VH4PN3M2xtshk/GgfIUlwbQ8ZYcSttlNgiWyTeP4YcLz+mP+5sHJN4vnip4piTzSXFjkp6jL14aZa8hBbA095ftq78rp5Y7nUF8bS1/B/QXoYMXtNjBQAAAABJRU5ErkJggg==;" vertex="1" parent="1">
          <mxGeometry x="200" y="270" width="1267" height="74" as="geometry" />
        </mxCell>
        <mxCell id="xE5-gIOUlX2Joq6-kquB-9" value="" style="strokeWidth=2;html=1;shape=mxgraph.flowchart.database;whiteSpace=wrap;dashed=1;fillColor=none;" vertex="1" parent="1">
          <mxGeometry x="590" y="500" width="100" height="130" as="geometry" />
        </mxCell>
        <mxCell id="xE5-gIOUlX2Joq6-kquB-11" value="&lt;h1 class=&quot;mt-2 text-4xl font-bold tracking-tight text-gray-900 sm:text-5xl&quot;&gt;Creation of data subsets and selection of computational environment.&lt;/h1&gt;" style="text;html=1;strokeColor=none;fillColor=none;align=center;verticalAlign=middle;whiteSpace=wrap;rounded=0;" vertex="1" parent="1">
          <mxGeometry x="520" y="390" width="590" height="30" as="geometry" />
        </mxCell>
        <mxCell id="xE5-gIOUlX2Joq6-kquB-12" value="" style="whiteSpace=wrap;html=1;aspect=fixed;fillColor=default;" vertex="1" parent="1">
          <mxGeometry x="770" y="530" width="80" height="80" as="geometry" />
        </mxCell>
        <mxCell id="xE5-gIOUlX2Joq6-kquB-13" value="" style="whiteSpace=wrap;html=1;aspect=fixed;fillColor=default;" vertex="1" parent="1">
          <mxGeometry x="900" y="525" width="80" height="80" as="geometry" />
        </mxCell>
        <mxCell id="xE5-gIOUlX2Joq6-kquB-15" value="" style="dashed=0;outlineConnect=0;html=1;align=center;labelPosition=center;verticalLabelPosition=bottom;verticalAlign=top;shape=mxgraph.webicons.joomla;fillColor=#1F457D;gradientColor=#081220" vertex="1" parent="1">
          <mxGeometry x="758.8" y="527.6" width="102.4" height="102.4" as="geometry" />
        </mxCell>
        <mxCell id="xE5-gIOUlX2Joq6-kquB-16" value="" style="dashed=0;outlineConnect=0;html=1;align=center;labelPosition=center;verticalLabelPosition=bottom;verticalAlign=top;shape=mxgraph.webicons.steam;fillColor=#695D5D;gradientColor=#100E0E" vertex="1" parent="1">
          <mxGeometry x="888.8" y="518.8" width="102.4" height="102.4" as="geometry" />
        </mxCell>
        <mxCell id="xE5-gIOUlX2Joq6-kquB-17" value="" style="rounded=0;whiteSpace=wrap;html=1;dashed=1;fillColor=#f5f5f5;fontColor=#333333;strokeColor=#666666;" vertex="1" parent="1">
          <mxGeometry x="197" y="1020" width="1270" height="570" as="geometry" />
        </mxCell>
        <mxCell id="xE5-gIOUlX2Joq6-kquB-18" value="" style="rounded=0;whiteSpace=wrap;html=1;fillColor=default;" vertex="1" parent="1">
          <mxGeometry x="547" y="1150" width="510" height="390" as="geometry" />
        </mxCell>
        <mxCell id="xE5-gIOUlX2Joq6-kquB-19" value="" style="shape=image;verticalLabelPosition=bottom;labelBackgroundColor=default;verticalAlign=top;aspect=fixed;imageAspect=0;image=data:image/png,iVBORw0KGgoAAAANSUhEUgAABPMAAABKCAYAAADe6hEAAAAYRWlDQ1BJQ0MgUHJvZmlsZQAAWIWVWQdUFEuz7tnIwi4555xzDpJzkpwRWJa0ZMkgiARRwhVMqIAiSUSSYAAREZAgiiBBQDAACgqiYkBR0htAvfe//znvndfn9My31dXV1VXd1V2zAHAoEsPDgxG0AISERkXYGuvxOru48mLnAQ6wA0qgChSIpMhwXWtrCwCX3+//LN/GALT9HpHalvXf7f9rofPxjSQBAFnD2NsnkhQC4+sAoJRJ4RFRAKCXYLpAbFQ4jDGwloAxAlYQxoLb2H8Xq25j711sscNjb6sPYy8AKPBEYoQ/ANTbevHGkPxhOdQ5cBt9qA85FGa9CGMtUgDRBwD2aZhHMiQkDMYceBiLev9Djv9/yPT+I5NI9P+Dd+eyUygMyJHhwcT4/6c5/u8SEhz9ewwBuOIDIkxst+e8bbegMPNtDOsO3Q/13msFY3oYj5J9dvi38XxAtInDL/5VUqQ+bDPADAAC70M0MIcxJ4z5Q4P3Wvyia/mRjUxhDNseYU+OMrXf7YvwiQiz/SUfEecbaWj3GxMjdsba5smKDnLQ/SXzQoCv6W+ZLQkB9k67eiIex5Ad98KYGsbPIoPszH/xLCYE6O/9zRMRbbutM+xzJPCLMLLd5UEKhkT+nhdSPYBsuvcXtogKsDfZ7Yv0IBF3dGOFcaBvpLPFbz19fA0Md+eFTPUNdfilP/JEeJSe7S/+8vBg61/8yFbfYONtOj+MByJj7H73XY6CF9vufFEgPMraflc3FGMg0cx6VweUOLAA+sAA8IJouHqDMBAIyANLTUvwr90WI0AEEcAf+AKpX5TfPZx2WkLhpx1IAO9h5Asi//TT22n1BTEwfeMPdfcpBfx2WmN2egSBeRiHAHMQDP+O3ukV+mc0R/AappD/a3QSrGswXLfb/ovGS/ObhjHEGGBMMEYYMRQ7SgulgbKAnzpwlUepotR+6/U3P3oePYSeRT9BT6OfepJTI/6lOS+wBNOwjka/Zuf9z9mhhGGpSig9lCYsH5aNYkaxAymUIjySLkobHlsJpv5T1+g/M/7blr9k4WRxCBwLTgcn+m8NqMWplf5I2bbUP22xq5f3H2vp/2n59zz0/2E/H/ht/m9O5FHkNWQvsgPZh2xFNgFe5F1kM7IfeWcb/1kbr3fWxu/RbHf0CYLlkP9rPOKvMbetFilbLbsgu/6rDUT5xkVtbxb9sPD4CLJ/QBSvLhytfXlNQ0nSkrzysvLyAGzH/t3Q8sV2J6ZDzIN/08hjACg3wMSJv2n+8HpvmQUAZ/E3TagG3s5wbL2PI0VHxOzSUNsPNHyi0MA7hQ1ww7FLFJ6RPFAGGkAHGAIzYAXsgQvwgO0cAK/TCBALEkEKyADZIA+cBgWgGJSBy6AWNIIm0Ao6QA94CB6DJ2AKXitz4B1YBt/AGgRBWIgAMUBsEA8kBElA8pAqpAUZQhaQLeQCeUH+UCgUDSVCaVA2dAIqgEqgKqgBugV1QH3QEPQUmoEWoM/QTwQSgUcwIrgQwggZhCpCF2GOsEfsQ/gj9iMSEOmIY4iziFJEDeImogPxEPEEMY14h1hBAiQVkhnJh5RCqiL1kVZIV6QfMgJ5EJmFzEeWIuuQLbCnR5DTyCXkDxQGxYDiRUnB69UE5YAiofajDqJyUAWoy6ibqC7UCGoGtYzaRBPQnGgJtDraFO2M9kfHojPQ+ehL6BvobnjvzKG/YTAYZowIRgXeey6YQMwBTA7mPKYe044ZwrzCrGCxWDasBFYTa4UlYqOwGdhz2BrsXewwdg67SkFFwUMhT2FE4UoRSpFKkU9xhaKNYpjiDcUajhYnhFPHWeF8cPG4XFw5rgU3iJvDrVHSUYpQalLaUwZSplCepayj7KZ8RvmFioqKn0qNyoaKTHWI6izVVar7VDNUP/D0eHG8Pt4dH40/hq/Et+Of4r8QCARhgg7BlRBFOEaoItwjvCCsUjNQS1ObUvtQJ1MXUt+kHqb+QIOjEaLRpfGgSaDJp7lGM0izRIujFabVpyXSHqQtpL1FO067QsdAJ0dnRRdCl0N3ha6P7i09ll6Y3pDehz6dvoz+Hv0rBiSDAIM+A4khjaGcoZthjhHDKMJoyhjImM1YyzjAuMxEz6TI5MgUx1TIdIdpmhnJLMxsyhzMnMvcyDzG/JOFi0WXxZclk6WOZZjlOysHqw6rL2sWaz3rE9afbLxshmxBbMfZmties6PYxdlt2GPZL7B3sy9xMHJocJA4sjgaOSY5EZzinLacBzjLOPs5V7i4uYy5wrnOcd3jWuJm5tbhDuQ+xd3GvcDDwKPFQ+Y5xXOXZ5GXiVeXN5j3LG8X7zIfJ58JXzRfCd8A3xq/CL8Dfyp/Pf9zAUoBVQE/gVMCnQLLgjyCloKJgtWCk0I4IVWhAKEzQr1C34VFhJ2Ejwg3Cb8VYRUxFUkQqRZ5JkoQ1RbdL1oqOiqGEVMVCxI7L/ZYHCGuJB4gXig+KIGQUJYgS5yXGJJES6pJhkqWSo5L4aV0pWKkqqVmpJmlLaRTpZukP8gIyrjKHJfpldmUVZINli2XnZKjlzOTS5VrkfssLy5Pki+UH1UgKBgpJCs0K3xSlFD0VbygOKHEoGSpdESpU2lDWUU5QrlOeUFFUMVLpUhlXJVR1Vo1R/W+GlpNTy1ZrVXth7qyepR6o/pHDSmNII0rGm/3iOzx3VO+55UmvyZRs0RzWotXy0vrota0Np82UbtUe1ZHQMdH55LOG10x3UDdGt0PerJ6EXo39L7rq+sn6bcbIA2MDbIMBgzpDR0MCwxfGPEb+RtVGy0bKxkfMG43QZuYmxw3GTflMiWZVpkum6mYJZl1mePN7cwLzGctxC0iLFosEZZmlictn+0V2hu6t8kKWJlanbR6bi1ivd/6tg3Gxtqm0GbeVs420bbXjsHO0+6K3Td7Pftc+ykHUYdoh05HGkd3xyrH704GTiecpp1lnJOcH7qwu5Bdml2xro6ul1xX3AzdTrvNuSu5Z7iP7RPZF7evz4PdI9jjjieNJ9Hzmhfay8nritc60YpYSlzxNvUu8l4m6ZPOkN756Pic8lnw1fQ94fvGT9PvhN9bf03/k/4LAdoB+QFLZH1yAflToElgceD3IKugyqCtYKfg+hCKEK+QW6H0oUGhXWHcYXFhQ+ES4Rnh0/vV95/evxxhHnEpEorcF9kcxQhfsvujRaMPR8/EaMUUxqzGOsZei6OLC43rjxePz4x/k2CUUHEAdYB0oDORLzElcSZJN6nkIHTQ+2BnskByevLcIeNDl1MoU4JSHqXKpp5I/ZrmlNaSzpV+KP3VYePD1RnUGREZ40c0jhQfRR0lHx3IVMg8l7mZ5ZP1IFs2Oz97PYeU8+Avub/O/rV1zO/YQK5y7oU8TF5o3thx7eOXT9CdSDjx6qTlyZuneE9lnfp62vN0X75ifvEZyjPRZ6bPWpxtPid4Lu/cekFAwZNCvcL6Is6izKLv533OD1/QuVBXzFWcXfzzIvniRIlxyc1S4dL8MkxZTNl8uWN5b4VqRdUl9kvZlzYqQyunL9te7qpSqaq6wnkltxpRHV29UONe87jWoLa5TqqupJ65PvsquBp9dbHBq2Gs0byx85rqtbrrQteLbjDcyLoJ3Yy/udwU0DTd7NI8dMvsVmeLRsuN29K3K1v5WgvvMN3JbaNsS2/buptwd6U9vH2pw7/jVadn59Q953ujXTZdA93m3fd7jHru9er23r2veb+1T73v1gPVB00PlR/e7Ffqv/FI6dGNAeWBm4Mqg82P1R63DO0ZahvWHu4YMRjpGTUdffhk75OhMYexiXH38ekJn4m3T4OffpqMmVybOvQM/SzrOe3z/BecL0pfir2sn1aevjNjMNM/azc79Yr06t3ryNfrc+nzhPn8Nzxvqt7Kv21dMFp4vOi2OPcu/N3aUsZ7uvdFH0Q/XP+o87F/2Xl57lPEp63POV/YvlR+VfzauWK98uJbyLe171mrbKuXf6j+6P3p9PPNWuw6dv3shthGy6b55rOtkK2tcGIEcecqgIQrws8PgM+VABBcAGB4DACl225u9qsg4csHAn47QtLQO0QXMhIlhFpEl2A8sXzYKYpSXCClPOU61SC+mBBFvZdGjBZDO0vXTX+JIZMxjMmR2ZDFiTWELYP9IkcL5zDXEg+OV5BPl99LIEmwUOiW8KTITzEOcS0Jb8k0qSrpQZkvcqzy2gokxWylBuUhlQ9qBHVxDaM93poHtQq0r+sM6L7R2zRgNZQ2MjB2MgkyTTQ7Zn7Bos7yzt5+q0nreZuvdpA93oHFkdOJx1nARcRV0k3eXX2fvoe5p4MXiRjmfZD0l0+xb4Nft/9kwHIgRRBvsFqIXWhYWFZ4xf6OiBeRa9GsMUqx9nH74/MS6g8MJn48SJuscMghJS61KK0jfT4Df0ThqGtmalZV9kjO+jHhXKu8+OPlJx6d/HiaJl/ujMPZuHNFBR2Fb84TLigVu19MK7lSOlT2vYLzkm6l7+UjVZev9Fa/rtmqY62XvWrc4N4YcS3z+oUbV2+2Nt1r7rl1r+X27drWgjspbaS7Ou0s7YsdtzpT7hl34boedGf06Pas9V6/H9TH3zf54PhDi358/9Cj/AHXQe7B2cflQ37DosMLI1dGA5+IP3k3Vj0eNCE58f5p/eT+KcWp1Wetz1NeGL0kvBydLpjxmOWfXXh14/WROc95zTcCb2kX0IuId5RLHO9VPrh9PLLc8unrF8WvcStt37GrNj+Kfs6vS29Eb7Zsbe34XwC6inBB0iEbUW5oSnQtxhm+1dRTEHGsuIeU6VR6eDT+HuEwtSkNNc0EbSldML0KA5bhOWM/Uw9zO8sd1ma2a+xXOWo4K7nKuct4ynhL+Ur4SwXKBSuFqoRrRRpEr4u1iHdIdEs+kBqWnpB5LvtC7rn8M4VJxXGlJ8ojKoOqD9S61Ts0bu+5rlmrVa5doJOrm6YXqx9osM9wr5GOsZwJrymtGTBbNn9m0W1Zs/ek1QFrbxtTW1k7NnvIfsFh2PG2U4VzrkuCq6+blfuefSIeDJ6Q5wevKWKfdxOpwuekb7pfin9qQBo5LTA1KC04NSQtNC0sNTx1f2pEamRqVEr0oZhDsclxyfEHE5IOJCYmJh04mJAcfygOXh25aRXprYdHM94dRWayZ8lnm+R4/RV7LCe3PK/l+OMT8yfXT9Pli5zRPGtzzq8gsfB4Ufn5lguDxa8ufi/Fl/GVK1eYXfKojIBXSOGVuuqOmtHaN3U/r+IbuBtlrulet71BuhnZlN586lYFHMG6WkfuvGpbvPu4vbYjq9P/nkEXb9d690TPtd5j98l9+g+4Hnx7ONhf+Sh5wHFQ6jHq8eRQw3DGiPuo3BP0k6mxhvGsCfJT80n5KZ5nDM9pXjC85JvWmPGaPflqdE50PuctWMh8x7/06EPmss1n0a9UK6vfP/5YXHu/8WXH/xKgCzKHJhBuiPfIIOQqKhXNii7FKGEewjfaDYpCnBZumvIIlTzVS3w2YQ9hifo8jS0tFW033TF6TwY5RhTjKFMFcxyLJSsP6wrbA/YSjjhOKy5Rboh7kucaby5fIL+RgIDAJnyPahbOF4kStRYTFVsXH5KokIyXspTmk/4k0yF7XM5LXlr+h0InHB/slFmVp1SKVYlq/Goz6sUaHns49oxrntSy0iZoD+sU6JL0JPW+6N82SDe0MGI0mjIug+OFvOkPs3bzIxZWlszwfaLUimwtbf3VpsU22c7QntJ+wOG4o70Ti9Ok8wUXb1dR1w9uN90P7TPzYPZ4Dd8D0olO3pIkBGnS57pvnl+Iv3mABJmK/D7wcdD14PyQ2FDnMPVwjvCN/S8jOiLLojKiyTGWsXJxzHFr8bMJDw40JhYmHT4Ynux+yDRFOVUgjT4dSv90eD5j7sjC0Q+Zn7O+Zf/M2TyGyMXk4Y4TTtCeZDzFcpo9n/sM31nBcyIF4oVSRXLnFS+oFGtc1CrRLTUvI5WnVBRfaqucvLx6hblascamNqQuq77yalfDdOP6dZYbCjetmgKbD98qaWm9Pdb6qQ1/V7hdp2Nf54F7Z7rqunt6nvd+7aN5IPPQof/wo7ZBzGPPod4R89HZsaKJ2MmEZ5de4mZqXp95M/Qu+mPuV50fNdv+3/1Gt10wygBUaMMBAT437EoBKGuF80xV+PyoAMCaAIC9GkDYJwDoRTOAXM79OT8gOPGkALRwxikEFHa+cwSBVDiXvAGGwEeIBpKD7KEEOAd8AK0gOBB6iEDESUQbYhHJijRGxiKrkM9QtCgjVBKcky3DeVgAnHvNYYQwAZhqzEesEjYJ20NBS+FOUUXxHWeCK8J9pjSlLKXcoHKlasaz4hPwLwgGhBpqZuoU6o80njTDtEa0d+iU6RropenrGGQYrjGqMXYymTNNMPszr7LksYqzdrN5s0PwKtXjmOPM4pLlGuNO5hHlGeE9yCfB95T/qICawKLgeSEbYaxwm0iMqKzokliVuL+EiMSiZK1UpLSaDEKmX/asnI+8ggJSYVTxklKCsrWKsMqm6rhao/oxjaA9ZpriWnitD9ojOs26F/Uy9aMMvAwtjfSNtUzUTBXN5MxlLWQt5fbKWylba9jo2pra2dl7OoQ4JjnlOVe4tLqOu63sY/ZQ9yR5HSO2eX/2EfUl+V30f0nmDiQF1YaAULewu/ulIiqixKNvx7rEYxLuJeYdDD7knuqW7p+RfrQm6/lfrLmOxwtPDp9ePctbYFWUcaGrhKLMpqK08vsVu5rGeqaGxGuvblo1374tdudcO2VnYtdK78G+rf79A8NDAiPEJ7njNU9vTV1/Xvry0Iz9K+7XL+cL3lotbL2ree/8EbVc99n5K2ql4TvxB+PPvvW0Td2d+AEBNKACjIAXyABd2Psh4AgoAx1gFkJDEpAtlAhn/+MIDEIOzu2zES2IJSQP0h6ZjexCbqLUUbGoJtQqWgOdjO7GEDCOmFLY65rYv7DTFIoUmRQzOA3cOdwPSjfKdioRqlyqn/gA/ATBjNBGrUxdTyNJU00rRdtIp07XRW9DP8MQyUjBWMKkAXs7Ds4w77PGsAmxTbD/xWHIscl5myuBW4N7k6eLN4fPkV+A/5PAPcF8oSBhfREukZ+iT8Vui1+QiJW0khKXxkq/lemTrZM7JZ+kQFZ0UjJWVlORVhVW41Xn1GDfw6HJoyWkLaWjomugZ6/vZ5BgmGuUZ3zK5KzpBbNK8waLNsv+vc+tPtmgbTntVOxtHMId85wancdcNtxE3G32JXvUe84QmbzNSYd97vqu+WsEJJLvBqGCLUJOh86Ey+5PiRiJEoVPpKk4lfj8hNVE96R7yZKHzqZi0mLT32UQjzzNtM8ayrH+azTXJW/6BPmUZr7wWYYCZOGP85+LP5Z8LvtxCXWZ6Yp4jUGdz9UjjVevv2yiu2VyO/1OdztVp33XhZ6XfcwPDR8FDCYNpY8kPwkY139KmOx7Fv2C8WXpjOBs4WvsnN9821vCgt3i6XcD71EflD96L+d8uvp59MuXFfpvUt+NV4k/Dvw8sVa1fndjbHNxx/8IePfTAz5475sBH3jnl4IesAQxQbpQOFQKjSHwCG1ENKIW8RYpjPRFXkYuoRRQiaj7aGa0H/oWhhrji7mL5cAmwHdOLYpyHAF3APeBkkT5jMqZahzvhp8lhBDWqfNoxGh6aMl0dHR36MMYhBlmGEuZ/JnlmTdYOlmz2BzYhdhXOQY4q7iOcJN5rHhV+YT5WQTwghghpDBahFKUUYxPXEHCXJIslSldKzMquy4vrGCjeFCpWvmpKoWairqvxuk93Zor2sI6zrrZeu363wwljQKMr5i8N1MwT7Lo28tqFWjdZstoF2Lf6yjolOo846rvVrEP5xHmOUbU8q7yYfZN8/sS4EvuDeILTgqZCtsTXhKBjQyLmooxjW2Jl0ooS+RIyk9mOHQylSmt4DB/Rs1RlcyebMecxWOH8tiON57UPXU7X+lM4znZgmtFyudbi/UvPip1LVuoSKgkXC67olE9VhtZT3/1WqPTtc0bl5qsmzdaals92ujv9nWk3tvT9bWn5n7wA+V+6NHA4Pkh8ojC6MpY3cS+SdRU0XPhF+XTLDOxs/2vWees59PeVLy9u/BwcfDd/aU770s+ZHx0XhZd/vqp4XPoF6Evj78eWBFcufPN8dvy95RV3OrxH+w/Cn/S/8xag9bi1+bWLddvbHBtHN5Y2NTdLNj8smW5dWnb/5F+CvI7xweE1wMA/WJr64swANgTAGwc39paK93a2iiDk41nALQH7/7vs3PW0AJQ1LuNerrqlv79/8v/ABGq08zzBZgpAAACtmlUWHRYTUw6Y29tLmFkb2JlLnhtcAAAAAAAPHg6eG1wbWV0YSB4bWxuczp4PSJhZG9iZTpuczptZXRhLyIgeDp4bXB0az0iWE1QIENvcmUgNS40LjAiPgogICA8cmRmOlJERiB4bWxuczpyZGY9Imh0dHA6Ly93d3cudzMub3JnLzE5OTkvMDIvMjItcmRmLXN5bnRheC1ucyMiPgogICAgICA8cmRmOkRlc2NyaXB0aW9uIHJkZjphYm91dD0iIgogICAgICAgICAgICB4bWxuczpleGlmPSJodHRwOi8vbnMuYWRvYmUuY29tL2V4aWYvMS4wLyIKICAgICAgICAgICAgeG1sbnM6dGlmZj0iaHR0cDovL25zLmFkb2JlLmNvbS90aWZmLzEuMC8iPgogICAgICAgICA8ZXhpZjpQaXhlbFlEaW1lbnNpb24+NzQ8L2V4aWY6UGl4ZWxZRGltZW5zaW9uPgogICAgICAgICA8ZXhpZjpQaXhlbFhEaW1lbnNpb24+MTI2NzwvZXhpZjpQaXhlbFhEaW1lbnNpb24+CiAgICAgICAgIDx0aWZmOlJlc29sdXRpb25Vbml0PjI8L3RpZmY6UmVzb2x1dGlvblVuaXQ+CiAgICAgICAgIDx0aWZmOkNvbXByZXNzaW9uPjE8L3RpZmY6Q29tcHJlc3Npb24+CiAgICAgICAgIDx0aWZmOk9yaWVudGF0aW9uPjE8L3RpZmY6T3JpZW50YXRpb24+CiAgICAgICAgIDx0aWZmOlBob3RvbWV0cmljSW50ZXJwcmV0YXRpb24+MjwvdGlmZjpQaG90b21ldHJpY0ludGVycHJldGF0aW9uPgogICAgICA8L3JkZjpEZXNjcmlwdGlvbj4KICAgPC9yZGY6UkRGPgo8L3g6eG1wbWV0YT4KADmIQgAAMvFJREFUeAHt3Qd8DGkfB/BfOoKIGu20SJAgUU8vURO9tzjtlLvTuYZzuOPVzh3H4ZS7Uw6nlziinno60csRgqhBRKS/zzOzs7vZbAiCDb/52OzMPM8888x3ZsfOf595xsrZxS0BHChAAQpQgAIUoAAFKEABClCAAhSgAAUoQAGLF7C2+BqyghSgAAUoQAEKUIACFKAABShAAQpQgAIUoIAiwGAeDwQKUIACFKAABShAAQpQgAIUoAAFKEABCqQRAQbz0siOYjUpQAEKUIACFKAABShAAQpQgAIUoAAFKMBgHo8BClCAAhSgAAUoQAEKUIACFKAABShAAQqkEQEG89LIjmI1KUABClCAAhSgAAUoQAEKUIACFKAABSjAYB6PAQpQgAIUoAAFKEABClCAAhSgAAUoQAEKpBEBBvPSyI5iNSlAAQpQgAIUoAAFKEABClCAAhSgAAUowGAejwEKUIACFKAABShAAQpQgAIUoAAFKEABCqQRAQbz0siOYjUpQAEKUIACFKAABShAAQpQgAIUoAAFKMBgHo8BClCAAhSgAAUoQAEKUIACFKAABShAAQqkEQEG89LIjmI1KUABClCAAhSgAAUoQAEKUIACFKAABSjAYB6PAQpQgAIUoAAFKEABClCAAhSgAAUoQAEKpBEBBvPSyI5iNSlAAQpQgAIUoAAFKEABClCAAhSgAAUowGAejwEKUIACFKAABShAAQpQgAIUoAAFKEABCqQRAQbz0siOYjUpQAEKUIACFKAABShAAQpQgAIUoAAFKMBgHo8BClCAAhSgAAUoQAEKUIACFKAABShAAQqkEQEG89LIjmI1KUABClCAAhSgAAUoQAEKUIACFKAABSjAYB6PAQpQgAIUoAAFKEABClCAAhSgAAUoQAEKpBEBBvPSyI5iNSlAAQpQgAIUoAAFKEABClCAAhSgAAUowGAejwEKUIACFKAABShAAQpQgAIUoAAFKEABCqQRAQbz0siOYjUpQAEKUIACFKAABShAAQpQgAIUoAAFKGBLAgpQgAIUoAAFKEABClCAAhSgAAUoQIH3UyCsYVWgvAeQzwWwsVEREhIMGAlWunm6WVqS9g6Rro2bvstF9MvrErU8idJMylbS5B8zZZtNMypUG9XWK/Nrg2maNi3TtXHl3Wi9idJ0mYzLNl4uLha4dQtWp4OQZf8OueRrGaycXdy01b6WFbBQClCAAhSgAAUoQAEKUIACFKAABShAAcsSiMuZFY/6tAIK5jUKuOnqyGCeIbgnSbTImeaSXDBPyasLft4MQeZVf8Im7K4ONfXeeJtt6lmyJApQgAIUoAAFKEABClCAAhSgAAUokAYEEgyBvDRQ2zRZxdz58Kh5e1F1LRKYelvBYF7qWbIkClCAAhSgAAUoQAEKUIACFKAABShg8QJhDaupLfIsvqZpvIIu+fCwYq1U3wgG81KdlAVSgAIUoAAFKEABClCAAhSgAAUoQAFLFRAtxSqWsNTKvXP1ivcoKbYpdVvnMZj3zh0m3CAKUIACFKAABShAAQpQgAIUoAAFKPAMAdlPHoc3I5BDPFgklQcG81IZlMVRgAIUoAAFKEABClCAAhSgAAUoQAEKUEARsLFNdQgG81KdlAVSgAIUoAAFKEABClCAAhSgAAUoQAEKUOD1CDCY93pcWSoFKEABClCAAhSgAAUoQAEKUIACFLA8gdTtvs3yts8Sa5TK5gzmWeJOZp0oQAEKUIACFKAABShAAQpQgAIUoAAFKGBGgME8MyicRQEKUIACFKAABShAAQpQgAIUoAAFKEABSxRgMM8S9wrrRAEKUIACFKAABShAAQpQgAIUoAAFKEABMwIM5plB4SwKUIACFKAABShAAQpQgAIUoAAFKEABCliiAIN5lrhXWCcKUIACFKAABShAAQpQgAIUoAAFKEABCpgRYDDPDApnUYACFKAABShAAQpQgAIUoAAFKEABClDAEgUYzLPEvcI6UYACFKAABShAAQpQgAIUoAAFKEABClDAjACDeWZQOIsCFKAABShAAQpQgAIUoAAFKEABClCAApYowGCeJe4V1okCFKAABShAAQpQgAIUoAAFKEABClCAAmYEXjmY12/eChwJmGymaMMsO5uO2HxwO5b19VFmWlsVxw9LlmJ34GrsNHnt3r4ac4fWUfK9TNk21lXw2/bN2DK1h6ECzxiT+Rdv34Z/Zn72jFyWm6RYrliW2HL7OjG9BDO/6fBCFU8o3R07jhr2k7mF5fp+E1575g7WJ0fW+QzLA/7EzH7q/tUnpOKIrXU9TBfbuXLqp6lYatorqvYX03Hi4AoMLmlvtvL95q3G6e2/wNts6tuZ+TKfY0s6R0i1LxasRlDgVItyTXZvlv4Uu44GYt7HZcxmKdH/R5w6uhYjkjmGzC70mmeG+Y/F8aBN+K52BrNr6jlrBU7tmoP6CVZm0zmTAhSgAAUoQAEKUOD9EHjR6/3UVHkT172pWd83UlYWVwTWbIBjNevhWC31FeRTH8dq1MAPrnlSvwpWefBHnVoIrFwi9ctOYyW+cjDPrWghFPRuiPVDyyW76YP+6o1y+fKgaAl1Z1pb5Uelql4o4ekG9yIF4e7mqn+5FnVF8cKFlLJepmwrOKJw0Q9QppxXsvUxTqj2/UA0KJYXnk07YUT8K3MYF/1GxqVluXKlhGVxFBGWyqtAfrh7eqNNn5G4vivlgZ3IgoVRzEXsJ9fcydZdrq9w0TxwL15Qn6d1Uz/U9i6DNu2a6+e9yog8SQYELkgUsApvXAdtKpdGzdYt0fI9vaCX/3F90d0H+fJ5ovfI/maJ3dyKwKWYK7zfgJG5/WSuUi/zObakc0RMnZHoXac48nrWx5hnnOfMbfvbmDdu8kfwcPkAzfoNMRt8LOzqitwurihc0HxAOLXr/OXcRfj7OT+W+FcohfzZC6J+0xZmV1/Kww25XQsgr9lUzqQABShAAQpQgAIUeF8EXvR6PzVdUvu6NzXr9tbKyuiM6k5OKO2UGUUzZlJehR0zoXTWXBhYqiquVi2VulUrkBcdcmVDnUIF0TElJecvhj1NamB41rQX63ne5r3yFoVHOYh12KBy535mLxytvAbh40o5lXpEPg7X1ycmLgExZ9bBpbAXXAp4Gl4iUFG5z69KvpctG3FATGyMfl3JjcjWPwMaeYhksQCc0XZhylrzJVfe25wfc2E18glL7eWStxvWXnyE9K61MWlE3RRVzT5CzRb7vNyCKy7WkOvv/lMwbdEyDB8+9HlLpii9ddMG+NCzAtr1aKPP77h2Pkb8shTTR36HFVYJ+vnv04j70F4on8kKccI/24eNMMRM8DkqNl7snBg8fAMw5vaTudW+7OfYEs4RcnuGf1IHTuJdniU+bNNHzrLYwcFuIJp7iNrKymYvha8+zpqkrlbR8twYj+efIZMs+sIzZIvapvXLoUIj32cG4dU6JV/8mzyuk68FUyhAAQpQgAIUoAAFLEJAfNdNyfV+atc1ta97U7t+b6W8WPXa/HzwfjiuW6G+1i6H1Y7jOCnS8ucsgpm5XjnsZNi04PMYcuY/TDl8FIsMc5Mda1YoPypnzQ5/D7XBWLIZ02DCK6vaQxcByl4Rk76vl4Rg7LhW0F9O2mdMnG777JYhr1R24jWZnbrX81NUz26NS8umY01IHPLUbo1ub6BFk9nKvPLMxJZx8XvQadRmRItyM2fP9WKlR+v2aQqXio3fjJFDRmDGtsgULvHsbBceP1UyxETf0WeMTziDmaO/wYjZ2/Tz3reR4a3EbZNxlzBu4hYRP3dB22nJ30b9WIcTUcr2tTGZ20/mVvZKn+O3fI6wt+2G9uLHiPgLmzF541VY56uI+Y1NzmPmNvotzes83xc5RZhu9egZuAo71Og8KvmaRIjA72seEsT/D0+jxX/w4guXdky+5lWyeApQgAIUoAAFKEABCrwWgdS+7n0tlXxbhVqnS7zmsHMYeP2BmGeDbHap2FVOwkP8eOQIBp29mXh9yUwdilEbIcXGqTGGZLKlydmvHMyDrQ0QGYJTd+Ph3b5voj6N5O1pnbyyIfTkCaWlkF0SIhlqesbwSmU/o1xd0iL/amIsDGv7/oJxW46L4+wDdB3b9PkLppEcCSKUp7W+kfvi8s1z2PV9M33t5W2bm86fxfXN/9PPU/K7+GBHUBDui/zyFfyMPtrkgtF1vsJFk7Jrf/Ejjp83lBF6eou+Tz3/byZh18H9uKMr/37IEaXPQlmfDWK9+7qUVOpTrP0U3Ak5h1tHF6GBlUg7fQbBG8bo6ypv89wsytHqeT94H9YZ9ZUot/nizdPYNfdn7Eq0PUsTBW17TluIi8Fn9eWEBG3A1I4pu01bX5nXPBLZdAJq57PDvf3b8ePUn3EwPAFFGrdN9HlTqyBOVtG2aL1wBUKFb9SmU7gffABbTG5zrPXFpET7J0T0VzbLqI+1cVsO4P75lYnKrznuT2F0BNN8aiS7n8z2afZKn+O3e45oPb0FPhCwh9eNwfipW8V5zA71+g5/zXv75Yq3s2mBbtXyi1PaCXSb/RM2HhO1da2CaWb7oYtD9jY/4KT+uD+JoICpifZ3Sj5fzzqn1By3ANevz0Pp9OI/b/siWHhdHIs3j2N9ClsKP0vBo9dYHDptOL/c+W8fVk7q/qxFmEYBClCAAhSgAAUo8B4JfDlzSaJrvPO7FuJTkz6j/7dkDULE9aZ6PXkcm6Z+p1wfX1hu/o4z0+vemuOWi2X3Y+nMOThr/L167bj3SPoFNtXKCX/UaoioVm2Q0Fq+WuJk1cS9vX9cpiputW6FhHatlVdw3Yr4s0FjJLSoCeUK3Son9ojlHjYoq67YKjN+bVAfUf4tkdBZLNe5JW43q4Eh2XJhd9vmuOauNi0rUbQiYj9qiag2NeEnGxNmc8O2Vn5I6NYCCd3Fq6sfNlSQV37qMLVpI1GWD1b61kZUz+ZI+Lge+ljYDYKvHsyDaPlj8wRzft4KpHfDyKmGYNGs4S1ED3bXMf3nozJXksHOuTh+mTQec2ZOMbymjjS6Hevly06yMpMZMtDjVyQdIs/sxBjreFwe/hfOiRYkHs3bmL1d2GRxy5uMTRr0mDaojvAHHt29BSvYI70YT5fR0KpI9jeQXtwl7ZBO3ioNyOCfjFsXqVMXhR6fxoJf5mHF3ivIJG59HrZmhdF+UbLr/8Q6ZoQsVSvbo/8sLB3QEPkdHmPPmuX4fc0u3EqXD81bNYK87a5bl0bwcHqKfVs2Ys78ZTh0x1b0WfgJln/6FJvXbcC2s2qLvMhrQVizfjPWb9yKLVaOyOQoapxJrb9sMXX+t76iL8b0OLllLX6evwqnIjKjSuuh2PtTJ33dbMQvAR6+dZH3wSmxPQux6WSo2B4vjAwYreQJ6/Uzvm9VHulvH8fcKTOUut5zLIKWvT/Sl2EJIz/2rSn2YAT+njEdspXiH9svKp+3QZ/rTmJaJWNFE6j0BdCiTkEcC1guXNbjv6jMKNO0L3ZNVD+bYf2nY9mAxmL/3EfgokWY89cuPM1eEK1Hz8FsXasze1txTGTIlKiPskz28tcWe2TMcDjZ/bTJ7C3QL/85fpvnCHms+td1FT9WnMfsCXeQcOx/2HzxKdKXrInvS6qfGY3dEt6rfNcB7vZWOLthmVKdATN3iE+0I/z6DzKpnjhGkA41m9ZC9PFtmCM+F7uuRCKvd33MDhyn5E3J5+t555RV+//BqoB9uC1b5uEpDm/ahPUB27B9z26T+rzYpKzbom9bonC629gwf55yjJ+65/Be96f5YoLMTQEKUIACFKAABd5tgX4LA/F5U2+kv38Ky8T3xSU7z8LZtTzGiGta7U68ket2oWeNYrC6eVKX5wrKtG6tdGuUIVces0Cm172ZlJvjnFG3aTU8OrRVXNuuxonQeOQt3wJbU+EHbLOVsMCZWgMi46rVdy2DufmdxaxYXH8srgdEIG9J3drwz5YJV+5cxYhjJ7DgzhN45C6Kq1WKKYsW8q6J2UVzizuNniLgyiXMuBKKdNk+QDtnce1l74DKSi5bZLIVcQE7talYv1qV0CNHRoTeuYHJJ85j6c2HyJA5B3oWT48NV0IQGKa2yHvyOAwrrlzH6uAb2GBVGGcalUStzDbYcfEivj50Htsf28C3ZFkEeIprVzE4iDZrcMiM5vky4fKtO1hw+ip+ScUGhspKXvGPWtNXLAQ2Ngid2Rdrep9G05afoFu/1ZjceTxauafDjQ2/4Zfgghhhsg7Z7xeyu6NtR3eTlAjEB07GinW6m7JeomyTAs1Oqv1gxSBg7lglPSZuJebt6oPxPl74RvQz1fzX+2aXs8iZwtLOrQEuna6pr56jcxYRdhF9CYQex4zRW4C6hjR9Jt2I3BVykBfnygERdhgFKnVQZ2I8DoiT4XgfNwye1BRrvniim2940/rak3NkP4TfdqkuQmgPsairD/puS5q/VmH1w6qVkG5kBM5c7YqCJUrgpz5f4m/xC8e+YjkQvHseegzdpGSTgRU5aHXttagz8osP2NF5Q+EzbLOSZjfiALZeGAvPZh3Qst8iLNW25+YOFK7WS8ljY70NWy7PRelCRZRWSHaeBUVd47B5dHcM1Y45Jafl/JH9Tsp+0GKubNZ7/vXpSgxt8gXKdhB9uE00apEkW8GJYe/Yemg07a4y/t03p7DnyhfwaNkdrYaeQ/MuNZT9M79RPQwOilLy9N06AXdnNkXToWPQc91AZZ44esz2vSdP1j99bX4/6RZM+vYSn+O3fY5wG9oJFUSrsuDVy/T9NLZZuAux39ZFi6E9MazztKTb+Zbm6Pv/jLuKOUPWyA8z0q/5HFu/9UXDCnVF/4pjMUn8aKEO6jHycM8clGk1UZ01egwWHzyBBiXriZZ8o3G+V0o+X8lvrPycOq/5FZ+tO40tFz9EzsirmNJtEMwHe5Mvx1zKQ79icBEJwZumw//rlWqWr3U5Lew/WHP15zwKUIACFKAABShAgdcn4GAr4hE+ooVV+Cl082ql//4ZMG0V/mhVAn1E46P58wuhfTnRr3/YcTQq3wZHddUJmLZR5Cks4k/mm2AZX/eqi6jfq29t+B4VevyhzLJeFoHgjR1RqFxFMR2oK/ndfpPf/d3yl0GCeCUaEqLF9flBDHggrkMKFUOrTLa4fO0o3P+9IFsSARfO4mHdZvgsd0F0wE30KJBdzIzBrC0B6B2mXrt8erU8YquLa3aR/4FR4VpcoGxG2WTpCb76ex8WJxjtN2X0ChZ8WBvXnNPhys3zaLv3ulJCN/Hk3WLi2mjN7gA0Oy+aM4m8445fw/6PasOnuNiGkwfE9ZR6YbFl7wbUPSnyWOCQCi3z1K2S7aWa/fA34sStqn3E7U6LetWHvbiw/KH7AkRnF5FUk0Fc2yPmQgCy5nY3eZURwQRdIE+3zIuWbbKqJJNaP1jAbRwJr4w+PT8Sr7aICros8tqgmv+oJMtY/IzoJ7h56zbu3gtTXsFng7Bq/njk8m6jD0SkZBtkfPvShr8SZf3ltwNKz4h2pn0eJsqlTsinkObKKg780CB94Mk0W3zpTvh1yWL8u28bzgXtwsnLXZUHDGgPSHGzV0+KdvY5TBfVT7vnlVH+UGz8SgQqdYMMyB68Kvr7s3dCiVJqpF4mXdq1S8siYhyiraL85DvmUFqdLRO3Vz8U+7zp7AM4tW891i74EcM61dLnt4SRHkMail8ngBvHrqBZp87K8drBNxynxK8+1i6mfbiJcKzoV2/+1Hv6qkfHzsM/okUZRMu6zGL/5M8q8oj9owXyZMZM67bgYmQC7Jyzpbhlakr2k74SYuRFP8dv8xwh6z20VTnxNw6nzsSgs3KO+AjdQ8+Jow7IVbuJ/lc9mfdtD1r/n7h2CWFNW6nntE6+CDolW7ma618xBoGilafxMPufS2JStLx0tMaLfL6MyzAdVz5vcqbYmXL/JzckKL9qJpcq5xv+A5XH6hlxm3mBZuMQfHQLAlfMxk+ft3/WwkyjAAUoQAEKUIACFHhPBML88io//N4S3RMZ/5C8as0x5Zo2S15XRBTIhizC48beLfpAnuRZtWa/0pjB1kYN5KSMLAb71+h+YBYLaLEPR3Fd9b4M8ur95v0b+OG/i/jlvys4p2tDEHLrLOoEqQG0ls4ZxVW3iOnlKY5Lvo1xvVFjBPv5wj+LuBCwFiniTrzsom+9uCd39YE8xe9GME6Ih6fKxgrmhtV3HonZGbCoU1NcbOKD9dXLoWdeuSZ1KG+tLmhrI+8yU4eKTnLcGg29fBDczhfX2/siuHVlVBQt/ux1QTxlhQkRWBlkuA7RlreU99RpmafbGucFA7G0WxV06DQURcS8swunY57Z2+5efPNTs+w2Uxor/WBBhHOGz/oxSWWsi6r9TJlrVZYksyXMEMdqzKV/ULX2FymojQh26QYrK/OX1zFKmFzLpd5+a5hK4Vgyx7xsZXZ+Yy+l6eyVk2dw8mIo7mfwRMvK+UUcIZlPaHKrjIvGfZPjK1pZrx1y5lAPbUNIz7QQtdVZhjXDxIn8CtZ2rgtvt8KoWqeoeDVEO785KNle12rJdNE3OC37QfOX/aCJoUCznpjXzHTl1qjdW+z3dSMMCXGGUcOYukPkqU6eReMjk7aYVPI6ZETOZB4Ck2CfvKZhPc8eS83PsemaUrNs2Udhw3zqfwK+X42Cr+nKdP1rzhu22jTlrUwval9NXW/BWpg7q1aSOhRp3BL1RWtVwxcaswdJ4uVS8PlSF3j2OUVVTFy06dTli7fFrBKms/XTGR1ktM9OCfrLjofrFuuHib92QOVSRVGycg2UFa92rRugQfmPEn0h0xfAEQpQgAIUoAAFKECB90rgacQDs9trnz6zMl/ebZQpd/5EeRzuKs25Es1LyYQs630e5FViePg1DD4RrDIcP4ANDVvB18UDi/JdQEfxsFEtGhcW/ghnoxJEEwLdEB6B6KcPcVY3aWOXDo3E+HotXbzHyOBgMhcVq0QDoVbh3visQA6UyOgEvyzO8Cv4Adqc+Ad1jt41KsVoVBewOxP2CHesDe3bzou6hd6TjSG0IT5Ra0BtrqW8p2owT25U34Er0WpjV9Eq7wJG6W73Sn5jo5NPMpPyQmWb6UNOFilv1+xev7gYC8O8Xl9id+acygWiTLN6dAuxNfpiaoeSSj9Tfbd9J2enjeE5T/2MFg3S5GBr1LouvFFVeIoAWoxRM2J5Iirm10I0SzIEKbq0Lq/0vRcTbWgxaWNr/tCRF9qXbsfCM19JTBb9ihm3/pLrL1bfU2lldnZeT1Qe9q+chTD/KUgQwTw7ZS3iRBAtWpGJwfhptsoMoz/Hr9xGhyIfoK3oM27exENKinyARpk8GcTPIRexY2ukuLXYaIFnjMrbAT8SLznIMtaenINKlWuJPgInvVCrxmes4qWTKk/ooOyjhweWoufUvciTW/3PRxZ4I9QBQ2YMQ/kydUUfbt9hmLxlNlYE7cTDBjr1dMYK3a3idjYdUbmQOADibiEhPhDX7oj9U6g8xsZb42vdrZeRtSshv7ilNPLMBSXgU0+psRo80Srf+EPR5Fz/SJWU7SdtWeP3F/ocK89jNl762eMvVHYy5wi5hhlKH4XAwRmjMPF4GPJmzqRb8WNct6qKXye0FP1rdoC3COZpzfKfXbPXl6r0/ym6NJC3CQzq+zMScrvoVxZ+MxRVvpqErh4lMOibOtg0JlCXlg51P/YHts3S521fuYgYj0OMeMptSj5f0brA8rPOKfJptpEyjmwT98yn2Z7eeQ63v6yJIg3bKrfIrzAK0of1mgLfguK/+9Cb+h+H5HlmYHf19nq5ASPX7UX/cl7oI/p8NG3ZLdM5UIACFKAABShAAQq8YwLJfJfPsuGScidNgaoNxR1HC/Tf1ev6FFOuNs+ePgyn9dYIiWsF99LVMUJcE8k+9OXw6Vd11DvGZEswDi8mYJ244Yff2euI8sqPth6VRTBvF1aEPxFXGs4Ii7gOv30X1NtstTXoGpOcfhKHkhmzYGjJbFgfpLvTrIQ7Ksin4T6jLcKKoKNYESQKk7fZZiuJW37uqPaBuLYRwbwH8eq+NX6a7ckIcd3sbI0rwQf1t9lqVTFp16SfbYkj5iMyL1xTw0W/7CS+55R4lDr7t74ViBZIMi1Wdm4/Z+oEEXww7Hg5en7NfHy39oQu+0uW7eKJJeIppsZlwy4GodF5UTqTFW4EzsOQtTtMqwTrdbfRqt5KVK/QUHywx+o/2EkyWtiMZALV+lo6BocrF9MFGvfGgrDsOI1CaNe5vpIeqwvQaA/AgHNFnA+YgZmL/0WuWr74yLeoCJCpfXEl2FRGeEQCrAtVx9/iYSX/XDyM0af1q1FGFiw/gEYDqqDrmgBk+W0dLomGzvVa+6HQ3UDk/f6m0rzZrfkwjDkzCxeyVcXXX/oqyz3VBQsDt55FRJcyIqg4GDPDvRApbtPe039/opVM/20bBvt0QflBM7Ay1xIEXrVBg/btUV58KIM3rNUH4WRw0nSQt2/KwUm8xgXuRa8CkdiwNhB7j/0HhyI14S7KQOhd/GcUUFAWeMN/ZGBxQEMPsdbrmNz4WwTq/pMxrsayuTWRMKAqWnzdC8PaTxVJ6lmuxugALMj9O/Y+yIbmXdsoD0a4tHqV4nJ/9VE07F0BvS/+Dcc5f+JyOg90Eg8lySqOg4A//6cU/0j8QiKf7jxk43S4/H0O7nWaoLHSUs0gam4/7e47Rm9vXE+tVZWcZ+nniKDdj+En+iiMD9mO+mMWJ94MZSoAM5tXwxeVSuObvmXRfNphM3ne3Kzv+ssvHXHYMqU3ftt6P8mKN+z8DX7X+qN8C394K8E89RhxqjkI/8zNjbnbb6B2h45oXNABMRc3o6fo5zJa9C35vM9XSs4pcfF7cETc+l7eowjGLJ2IsqefIMvTg/h8wrpE9Uw49gP+3Ncc/Su54deru9Fl4w4cvfEUBUpXQn0RZLQXx+aWeT8py8inhq3sUhgHAjZi078ncB+uqFXEWaTdx7U1osWp4ce1ROvgBAUoQAEKUIACFKDAuyNgl8z1/snFs7Hq0G3xQ29ZrNj1G+Yu2A57z7ro1rqMuFS6jsWD1yJGXFdNX+WPqaIPvYE39qP+mRuwzV4Abi6iYYgcxO2WLzIYohnislnXiOZFlk/reQ1XiEZbcnkflhXOjU6ZXbDFPRvqnLuI3eLhFjXyeuNSjWyYfvUesjplQ9P8eeFp+xgdV2xGu3NX0aBsIVT3qIXgfA9x3zodvDLJW2LFYG6XWOXB/jYfovjTB1h+5Qb2P45G6by5lMZDN5+oDZG2hzxAhFh/iQIlsSA6K56mt0XgmWu4nq8Ymlb1xXYXcZfe3aconDMnWhTMiYxhV+G0Sm0spK7Ycv++ejBPlvDoDo4aBT7WTpiAtUbbLC/6RDspMRhux4oUwVD5AIwWrd2VFOM/t+z+U4N5r1K2syvq+boaF6uMP3gga3IXSzvNMXvRJ58U+tPyQ6gugh1VR/oA+pYsSYqynBkiOBX11NBqzlzFZADl28WlMalDGfh17Q0/kenBxSBc+sBTd8ux/HyoT7y9fvAIrErXxvCJYvvFEBcZioUjWqmtYsTF+dBZm7Dhy4ao0LoDKkR64VDPY2o4MFrdv9vGd8OwfAvxVfPyaN6nj1IG4h5i57IdsBVPnh2zthhGN/HEpxN/UNJCz55HRDE3pNPdZmu3ZRR+/qcSvqheCG36dBN5nsJxzcFEwXj7LePQ8tusWPxFY9Ts2As1lZLicGXnEpTp8asyJf/IE6txi8L4hGsIfZQAT8coESITneiv3wPfT33h17GreMklxC2oYcGY980n+l9x1Llv/m9k7erwEoHFezs24mczgTxZo+wT52HfR5VRqfSHYkoE8+RTaKNDsOu8Lfz6DFD2swzwXT+4EuX7qC7bR/njy+xLMKKVN/wHfqlumNg/e+d9j06/hinTY5tNQuVjo1De2wdDxAtx93H4aAjKemcXH2P11w2z+2m1aM1o+tCTV/kcv4VzhGfeEOU/gL1/GI4jFcnwd8LoVfhY3C7uVaM28BaDeTLgW8kjhzilHcC4ZB7aExU7A38e6iS+0IhOZ0Vr2f1KG/WnOLL3P3j6tscUNZaO8JBjGFW1n/IfZUo+Xyk5p0ixgf9bhLozusO1RmMMqSE+j2cckgTzZL5RLaoBS9bg46rFUEX0+1dFzhRDdPgdBC6YgLY65+1LNmJ/nd740LcVKoiXMsjzy4zxaebHF7XS/EsBClCAAhSgAAUo8DICSiwhmev9Ire2omKTnsi54We0966EwaMqKauICxfXeINb6K+rFvZtDjyegQGNKsDVzRVP74uHJUw5ghoD2yJ3jGjhZWaQjV9i5Hzdda+WRd7Zog3OG64rt2Zmfc71uZb/XXiX19xPY9W764y3x//kf/Ct7IZK+QqJPtgOo2bAIeyoXxo1cnyAyeKlDPHR2HklGEoTiouHRBdYsTjgnh8emTIju+j2Z+uF84jLJ2I74jJXG9QOpMRUwg2svnYPxQrlQLeSWSEjB3K4L+JTQwJ1LY6uHcOkGzkxMk8mdPJ0E6lxyHBpHfLttcOZsgVR09VVvJTFEB31GAsu/KdOpIG/Vs4ubuaP1BRW/mkpD1Q6ceq5gY+SPtVhu/Wf5+YzXu3rKFs+9bG0CNg979a4kj4lEbRVttV8twa5/U0bFxSt67Zjy9aniC5dDY0S9mPzCeW0BLmfgsR+kkOdJg2RSTwZZtXanUkQZDk+tXPg7nP2aZ0mNWAVcR+BJpZaPSKubFHW/UCst5ZJWbJubQtkhJYnSSV0M7R6XhH1NN2v5o47eVw1wXn9Nsti5LzGObKJTvrDsMqkrsmt1xLnS9c6JS8q26b5PVljaCVrWmdplzlCdOyp2+em6aV8GqCIY6T+GKgr9lOgSV5tPcntp9fxOdbq+TrL1tbxrr2rn13xi5Q4zrXPIcT5YJU4H5gbnvX5kvm1MpI7p2hlauWYO59oebR3eZzJjmwzipB7cp9HdTsKiAd2GI5PbXm+U4ACFKAABShAAQpQQP7w3aRRZjyOCElyPWruOuJp0x8QPtMPIcvGwLv/whQB1hVxA9NrXXPXtikq7E1mErekhv0+WgTEjFaq9Z2uzUv0dFhd0zh9mm45bVo2ndPGTd9lVn3ZIjGLC9pktEL441vYKJ9aq6WJ+40aZAnH3/fFPP1QABfaVUChxyGwXSvu1tPKlunKuLpej6xZkD+daBYZeUNdXsunlZ0tl3iarh0ePxLp93TlizT3fLlEfAgIiryNM/fEiH45J9TPFo5Nxv0o6tN0I1rZ+rpodZLvOi+jNOfvPxcNJ4zmy7RXGF45mPcK6+aiFKAABShAAQpQgAIUoAAFKEABClDgjQpM3n0cXYvY4OLRgwg6fRmPMhZGw0aVkNMmAgt7Vke/dc++8+2NVvZ1rOxtBvPk9miBMWVcDXDVLl8PWws54Xb4fewNe4gbMTbwyZsX7ulscPzSQXj9G2yynFxYLKuVlSj4KNPEYBxUU+cY5dcF1rTllfy6TMo8o7ITpekWMC5bK0P/rivbaLnUDubJG+A4UIACFKAABShAAQpQgAIUoAAFKECB90Kgz7fT4DrMHxVLVYard2Vlm+PCb2L1tDHvfiDPQvfwtoPHsMDRC02yO6NZpqxqLRNicejqaZSXgTwOiQTYMi8RBycoQAEKUIACFKAABShAAQpQgAIUoMA7LGCBLfMMLeyM3E1byGkt32SWJGlGidqoces5rVjTNG1aX6aZshOl6RYwLlsrQ//++lvmWWvbw3cKUIACFKAABShAAQpQgAIUoAAFKEABClDAsgUYzLPs/cPaUYACFKAABShAAQpQgAIUoAAFKEABClBAL8Bgnp6CIxSgAAUoQAEKUIACFKAABShAAQpQgAIUsGwBBvMse/+wdhSgAAUoQAEKUIACFKAABShAAQpQgAIU0AswmKen4AgFKEABClCAAhSgAAUoQAEKUIACFKAABSxbgME8y94/rB0FKEABClCAAhSgAAUoQAEKUIACFKAABfQCDObpKThCAQpQgAIUoAAFKEABClCAAhSgAAUoQAHLFmAwz7L3D2tHAQpQgAIUoAAFKEABClCAAhSgAAUoQAG9AIN5egqOUIACFKAABShAAQpQgAIUoAAFKECBd1zA6h3fPkvbvLhYIJXNGcyztJ3M+lCAAhSgAAUoQAEKUIACFKAABShAgdcpcOX66yydZRsL3Ak1nkqVcQbzUoWRhVCAAhSgAAUoQAEKUIACFKAABShAgTQi8O+pNFLRtF9N61MnUn0jGMxLdVIWSAEKUIACFKAABShAAQpQgAIUoAAFLFfAOWA3wNZ5r38HhYbAaf+OVF8Pg3mpTsoCKUABClCAAhSgAAUoQAEKUIACFKCApQqIDtzEP6cZfzGg9zp30c0QZF65WNdfXup2mmfl7OKW8DrrzrIpQAEKUIACFKAABShAAQpQgAIUoAAFLElAFwoSb2G+VYHynkA+F8DGRq1kglGoKEEXiNJmmb7LyKDpPG1alqZfXjfTbJrOJlGanGembDlbyWecZrSgNqqtV+bXBtM0bVqma+PKu1HZidJ0mYzLNl5OPuzi1i1YnT6BLPt2GD34QpSXioNVghhSsTwWZSQQHSN2Iod3UOARVoyZhj3RTijrnR1ZXaugYan87+B2po1Nir13Aqu2nEfEoxCcuBSHjsMHoWzG1D1Rpg2Jd7+W9na27/5GcgspQAEKUOCNCfC7evLUFxb0gFfPRzgUvhTFbY2/Vz3C1sn94fvVQvj8tBMBfSorhTw6sxI5SrcFGn6PU4uHwtXRsEzcrX/RJX91rLLtjINhs1HcwQpPziyFc+lOmHb0Fnp6ZBVlROPhw3g4OaUzW6kLCzqg7Awf3NjXHRl1OZKUEXEa/s7euPfTblGv8rpcj/Bn4+LoYj0ct9b0QRb9sivF+tvCbeYRBHUrqZsbjXW9i6Pd72Wx7+5SlHKIQ6ytLQzfPu5gvH1BfNNwkq6sxHWWZmV6Z8CRhz+hqG0kVrQvhg7Ok/BoRhs44Iky3Xn1h9gVugRlnNQb5KxCNsO+sB/QehbuLeqGOyu/RrF2EzHtoHApLV3kEILxFUphtM1IXNrXHy5RZ9A8kxcaHr2p2kVFICLWHo6OdricguUzC/vs3r9j/70NKKXtp9hr+DaDOybaNMLWKwvxYS57Zc2HppdBlYFBaDr/AJa1Sgd/sd50y47j12bFlHTTP5eXDoRnl+tJj5uHR9A8RyUE9JiLezM66fZhLPZP7oAaX63C8ssRaJxXrNNoW1Ja9qOjfyBHxe74aNFRzG4tglHKcBNTK3hi+KkeOP7wfyiU6BgG4i6sQgaPNpgd9BAfuWcwrErn8INdXxwWyxXVLRd9YT0yeTRHs5kHsLSbtyF/Gh2TISDtFRcXB/mKiYlBbGysMi4SX2rL7PhdXXGzsrIS8VAb2Irzh52dnTIup+V87fVSwCYLGc5NJgmcpAAFkhOwR1YXR9iGRuLEgYvIZleMwbzkqN7A/LgHN3Do6FkkODrAztEZGXlWewPqXAUFKEABClCAAu+yQIzYuNi4VVg0ewFKZXcQUzG4d+E4/hj1E47Ipis9ZmOeLpAnHTIXb4GTCz6Dp/8weGb9C2PnfoWSzg64fW4nun05RWbBzzvHKoE8ZcLkz4UFn8Cz++8iuHJPBFcym6SmcNIxD6p6ZUL/AZ9gsst4lLOPROZytVG0QTVgYD98+UMOdC6TAY+ze6OqruHR+d5lMMx+PVp7Zsbp5ZPQdd5VeHw7CyVEkOv0HH+U7xuHmcv7wbtIdsRd24f9EI013HIrwajEdY7HtmmrET34TzUA9PAsJq0IxfDAKiKQJ4cMaPj1BMSu8EeNPAPwR2BH5I2+igX1/NWNc7KXJaOQX1cMwBT0q1Af0SunoGqOp9g5pSu+ORaOQQHNINpMmQwiSNilOGSQcN8DEYBMwfJPTEpQJm3zo/+uqRhXrQ9q5HdEt3798Oj8Qiz/+76S7Cz+hh3bg2WIx8ZKhROXEHENG1ftQLi9PW5sP4y4+Eis/H0BPFxcUMCzPLwLiKWdymCUCOIFfNIVtRCGCV3K4kbgLHQbtQro/xcaykCeDHgab4sI+iIFZWf2boJZ9XOgV0dvWN1Zgu7lnLBtjD9GHnuEPqt7GgXynuDghvU4F5GAqJDdyjbsX74Q6UvkQY5CHqjmVUgEX/JjwPYJGFdLBCWrPsUfY9ogW1gQRnTqBxvruhjYrHTibU+jUzKgpA1akEm+y6Ce1tZLe9fypeSdP7yLRng6W/mu2VpbW+uDeFp6Sjyfl4eXvc8TYjoFkgikQ62PB4j/iDhYgoBDkQYY/78GllAV1oECFKAABShAAQq8EwLOudyV7Zg4oLt+e6ysvNCy+wj092+J5pVL6IJU+mQUbTsFF/JXEd/LPsVX3UQrPd1Qv/s3GDj4M9RylSEhdbBN76iMOIiWK3KwdcypvNvbGIIMyoxn/LG1tdOlape0WeC/eBF2l2iCr9vWV9KmHb2Hnl3GYMLuPfj8y/aYL+bWFq2rqlaKga1Nc8xc3AAr2zZBRRGkkkPLL3/HD5/7KK3xXBsOwYhm/dGjueFbf6keP+D48KZKunGd40IOoN+xh5j4q5dSzs1/A3Dcug6meOVWpuWfDCXb4cyGR+jo9xna1fxFmd/lx7kYtfELjHxoj/RyjkNRjLm8Gw5DmmKwbr3Sfeyqdehfp4CyjPyjtk5Ut9veyQ7W1i5QNFK4vL4goxHnij0QesINvy9aioOXbiKz13jsn+COJaVq40RUNI4umwjbspNQWtdqT1s0+u4ZNOvWTZtU3kf3UY8bpbWcDOaJoVSPX7ATOVDjk0FoMEeZhRbf/o6Jn6ueck6ibRHTKSs7C7os/xf2X/uj64B2+E0WJIYRi/ZhqG8RdUL+jb2FDc27YJwITGvDvFGfYp6c6LFItBgspLhmqfIZzmzOiMH1eqGz3ww1a5lPsHbht/gw67vzyAEtqCTf5UsG72TQ6WWCeCqS2H9smadRJAreGVvrM6TCCG+zTQXE5Ipg0/3kZDifAhSgwIsL8AvCi5txCQpQgAIUSF6A39WTt3nVlKiICBGhk6U4wMFBC7a9SqmxiIoSpZmUFSVmOjiobd8MpcciIiJOtLKySZRfrZOtkl/eoitvNT38eIO4jTgOEQ9FfdM5wtGkfKVMceuhuPlQrN9auZXVsB7DmLwNM7vXLhy+L27NFC3KlNtd91XAo4nNkgQ9xb2MSis80QhKrV9sFMRWwHTVSn3FKmwcxR1BhlWleOxFl496eBsPRLAtl5MhoBp3ZT0yuDVHn2VH4PN3M2xtshk/GgfIUlwbQ8ZYcSttlNgiWyTeP4YcLz+mP+5sHJN4vnip4piTzSXFjkp6jL14aZa8hBbA095ftq78rp5Y7nUF8bS1/B/QXoYMXtNjBQAAAABJRU5ErkJggg==;" vertex="1" parent="1">
          <mxGeometry x="197" y="950" width="1267" height="74" as="geometry" />
        </mxCell>
        <mxCell id="xE5-gIOUlX2Joq6-kquB-21" value="&lt;h1 class=&quot;mt-2 text-4xl font-bold tracking-tight text-gray-900 sm:text-5xl&quot;&gt;Implementation of algorithm and validation.&lt;/h1&gt;" style="text;html=1;strokeColor=none;fillColor=none;align=center;verticalAlign=middle;whiteSpace=wrap;rounded=0;" vertex="1" parent="1">
          <mxGeometry x="517" y="1070" width="590" height="30" as="geometry" />
        </mxCell>
        <mxCell id="xE5-gIOUlX2Joq6-kquB-24" value="" style="dashed=0;outlineConnect=0;html=1;align=center;labelPosition=center;verticalLabelPosition=bottom;verticalAlign=top;shape=mxgraph.webicons.joomla;fillColor=#1F457D;gradientColor=#081220" vertex="1" parent="1">
          <mxGeometry x="590" y="1182.6" width="102.4" height="102.4" as="geometry" />
        </mxCell>
        <mxCell id="xE5-gIOUlX2Joq6-kquB-26" value="" style="shape=image;html=1;verticalAlign=top;verticalLabelPosition=bottom;labelBackgroundColor=#ffffff;imageAspect=0;aspect=fixed;image=https://cdn2.iconfinder.com/data/icons/maternity-and-pregnancy-2/512/362_Data_infrastructure_network_matrix_grid_data_management_organization-128.png;fillColor=default;" vertex="1" parent="1">
          <mxGeometry x="570" y="1340" width="200" height="200" as="geometry" />
        </mxCell>
        <mxCell id="xE5-gIOUlX2Joq6-kquB-27" value="" style="sketch=0;points=[[0.015,0.015,0],[0.985,0.015,0],[0.985,0.985,0],[0.015,0.985,0],[0.25,0,0],[0.5,0,0],[0.75,0,0],[1,0.25,0],[1,0.5,0],[1,0.75,0],[0.75,1,0],[0.5,1,0],[0.25,1,0],[0,0.75,0],[0,0.5,0],[0,0.25,0]];verticalLabelPosition=bottom;html=1;verticalAlign=top;aspect=fixed;align=center;pointerEvents=1;shape=mxgraph.cisco19.rect;prIcon=virtual_matrix_switch;fillColor=#FAFAFA;strokeColor=#005073;" vertex="1" parent="1">
          <mxGeometry x="820" y="1360" width="160" height="160" as="geometry" />
        </mxCell>
        <mxCell id="xE5-gIOUlX2Joq6-kquB-28" value="&lt;font style=&quot;font-size: 24px;&quot;&gt;Graficos sobre la validación de algoritmos&lt;/font&gt;" style="text;html=1;strokeColor=none;fillColor=none;align=center;verticalAlign=middle;whiteSpace=wrap;rounded=0;" vertex="1" parent="1">
          <mxGeometry x="600" y="1310" width="420" height="30" as="geometry" />
        </mxCell>
        <mxCell id="xE5-gIOUlX2Joq6-kquB-30" value="" style="rounded=0;whiteSpace=wrap;html=1;dashed=1;fillColor=#f5f5f5;fontColor=#333333;strokeColor=#666666;" vertex="1" parent="1">
          <mxGeometry x="194" y="1710" width="1270" height="570" as="geometry" />
        </mxCell>
        <mxCell id="xE5-gIOUlX2Joq6-kquB-31" value="" style="rounded=0;whiteSpace=wrap;html=1;fillColor=default;" vertex="1" parent="1">
          <mxGeometry x="544" y="1840" width="510" height="390" as="geometry" />
        </mxCell>
        <mxCell id="xE5-gIOUlX2Joq6-kquB-32" value="" style="shape=image;verticalLabelPosition=bottom;labelBackgroundColor=default;verticalAlign=top;aspect=fixed;imageAspect=0;image=data:image/png,iVBORw0KGgoAAAANSUhEUgAABPMAAABKCAYAAADe6hEAAAAYRWlDQ1BJQ0MgUHJvZmlsZQAAWIWVWQdUFEuz7tnIwi4555xzDpJzkpwRWJa0ZMkgiARRwhVMqIAiSUSSYAAREZAgiiBBQDAACgqiYkBR0htAvfe//znvndfn9My31dXV1VXd1V2zAHAoEsPDgxG0AISERkXYGuvxOru48mLnAQ6wA0qgChSIpMhwXWtrCwCX3+//LN/GALT9HpHalvXf7f9rofPxjSQBAFnD2NsnkhQC4+sAoJRJ4RFRAKCXYLpAbFQ4jDGwloAxAlYQxoLb2H8Xq25j711sscNjb6sPYy8AKPBEYoQ/ANTbevHGkPxhOdQ5cBt9qA85FGa9CGMtUgDRBwD2aZhHMiQkDMYceBiLev9Djv9/yPT+I5NI9P+Dd+eyUygMyJHhwcT4/6c5/u8SEhz9ewwBuOIDIkxst+e8bbegMPNtDOsO3Q/13msFY3oYj5J9dvi38XxAtInDL/5VUqQ+bDPADAAC70M0MIcxJ4z5Q4P3Wvyia/mRjUxhDNseYU+OMrXf7YvwiQiz/SUfEecbaWj3GxMjdsba5smKDnLQ/SXzQoCv6W+ZLQkB9k67eiIex5Ad98KYGsbPIoPszH/xLCYE6O/9zRMRbbutM+xzJPCLMLLd5UEKhkT+nhdSPYBsuvcXtogKsDfZ7Yv0IBF3dGOFcaBvpLPFbz19fA0Md+eFTPUNdfilP/JEeJSe7S/+8vBg61/8yFbfYONtOj+MByJj7H73XY6CF9vufFEgPMraflc3FGMg0cx6VweUOLAA+sAA8IJouHqDMBAIyANLTUvwr90WI0AEEcAf+AKpX5TfPZx2WkLhpx1IAO9h5Asi//TT22n1BTEwfeMPdfcpBfx2WmN2egSBeRiHAHMQDP+O3ukV+mc0R/AappD/a3QSrGswXLfb/ovGS/ObhjHEGGBMMEYYMRQ7SgulgbKAnzpwlUepotR+6/U3P3oePYSeRT9BT6OfepJTI/6lOS+wBNOwjka/Zuf9z9mhhGGpSig9lCYsH5aNYkaxAymUIjySLkobHlsJpv5T1+g/M/7blr9k4WRxCBwLTgcn+m8NqMWplf5I2bbUP22xq5f3H2vp/2n59zz0/2E/H/ht/m9O5FHkNWQvsgPZh2xFNgFe5F1kM7IfeWcb/1kbr3fWxu/RbHf0CYLlkP9rPOKvMbetFilbLbsgu/6rDUT5xkVtbxb9sPD4CLJ/QBSvLhytfXlNQ0nSkrzysvLyAGzH/t3Q8sV2J6ZDzIN/08hjACg3wMSJv2n+8HpvmQUAZ/E3TagG3s5wbL2PI0VHxOzSUNsPNHyi0MA7hQ1ww7FLFJ6RPFAGGkAHGAIzYAXsgQvwgO0cAK/TCBALEkEKyADZIA+cBgWgGJSBy6AWNIIm0Ao6QA94CB6DJ2AKXitz4B1YBt/AGgRBWIgAMUBsEA8kBElA8pAqpAUZQhaQLeQCeUH+UCgUDSVCaVA2dAIqgEqgKqgBugV1QH3QEPQUmoEWoM/QTwQSgUcwIrgQwggZhCpCF2GOsEfsQ/gj9iMSEOmIY4iziFJEDeImogPxEPEEMY14h1hBAiQVkhnJh5RCqiL1kVZIV6QfMgJ5EJmFzEeWIuuQLbCnR5DTyCXkDxQGxYDiRUnB69UE5YAiofajDqJyUAWoy6ibqC7UCGoGtYzaRBPQnGgJtDraFO2M9kfHojPQ+ehL6BvobnjvzKG/YTAYZowIRgXeey6YQMwBTA7mPKYe044ZwrzCrGCxWDasBFYTa4UlYqOwGdhz2BrsXewwdg67SkFFwUMhT2FE4UoRSpFKkU9xhaKNYpjiDcUajhYnhFPHWeF8cPG4XFw5rgU3iJvDrVHSUYpQalLaUwZSplCepayj7KZ8RvmFioqKn0qNyoaKTHWI6izVVar7VDNUP/D0eHG8Pt4dH40/hq/Et+Of4r8QCARhgg7BlRBFOEaoItwjvCCsUjNQS1ObUvtQJ1MXUt+kHqb+QIOjEaLRpfGgSaDJp7lGM0izRIujFabVpyXSHqQtpL1FO067QsdAJ0dnRRdCl0N3ha6P7i09ll6Y3pDehz6dvoz+Hv0rBiSDAIM+A4khjaGcoZthjhHDKMJoyhjImM1YyzjAuMxEz6TI5MgUx1TIdIdpmhnJLMxsyhzMnMvcyDzG/JOFi0WXxZclk6WOZZjlOysHqw6rL2sWaz3rE9afbLxshmxBbMfZmties6PYxdlt2GPZL7B3sy9xMHJocJA4sjgaOSY5EZzinLacBzjLOPs5V7i4uYy5wrnOcd3jWuJm5tbhDuQ+xd3GvcDDwKPFQ+Y5xXOXZ5GXiVeXN5j3LG8X7zIfJ58JXzRfCd8A3xq/CL8Dfyp/Pf9zAUoBVQE/gVMCnQLLgjyCloKJgtWCk0I4IVWhAKEzQr1C34VFhJ2Ejwg3Cb8VYRUxFUkQqRZ5JkoQ1RbdL1oqOiqGEVMVCxI7L/ZYHCGuJB4gXig+KIGQUJYgS5yXGJJES6pJhkqWSo5L4aV0pWKkqqVmpJmlLaRTpZukP8gIyrjKHJfpldmUVZINli2XnZKjlzOTS5VrkfssLy5Pki+UH1UgKBgpJCs0K3xSlFD0VbygOKHEoGSpdESpU2lDWUU5QrlOeUFFUMVLpUhlXJVR1Vo1R/W+GlpNTy1ZrVXth7qyepR6o/pHDSmNII0rGm/3iOzx3VO+55UmvyZRs0RzWotXy0vrota0Np82UbtUe1ZHQMdH55LOG10x3UDdGt0PerJ6EXo39L7rq+sn6bcbIA2MDbIMBgzpDR0MCwxfGPEb+RtVGy0bKxkfMG43QZuYmxw3GTflMiWZVpkum6mYJZl1mePN7cwLzGctxC0iLFosEZZmlictn+0V2hu6t8kKWJlanbR6bi1ivd/6tg3Gxtqm0GbeVs420bbXjsHO0+6K3Td7Pftc+ykHUYdoh05HGkd3xyrH704GTiecpp1lnJOcH7qwu5Bdml2xro6ul1xX3AzdTrvNuSu5Z7iP7RPZF7evz4PdI9jjjieNJ9Hzmhfay8nritc60YpYSlzxNvUu8l4m6ZPOkN756Pic8lnw1fQ94fvGT9PvhN9bf03/k/4LAdoB+QFLZH1yAflToElgceD3IKugyqCtYKfg+hCKEK+QW6H0oUGhXWHcYXFhQ+ES4Rnh0/vV95/evxxhHnEpEorcF9kcxQhfsvujRaMPR8/EaMUUxqzGOsZei6OLC43rjxePz4x/k2CUUHEAdYB0oDORLzElcSZJN6nkIHTQ+2BnskByevLcIeNDl1MoU4JSHqXKpp5I/ZrmlNaSzpV+KP3VYePD1RnUGREZ40c0jhQfRR0lHx3IVMg8l7mZ5ZP1IFs2Oz97PYeU8+Avub/O/rV1zO/YQK5y7oU8TF5o3thx7eOXT9CdSDjx6qTlyZuneE9lnfp62vN0X75ifvEZyjPRZ6bPWpxtPid4Lu/cekFAwZNCvcL6Is6izKLv533OD1/QuVBXzFWcXfzzIvniRIlxyc1S4dL8MkxZTNl8uWN5b4VqRdUl9kvZlzYqQyunL9te7qpSqaq6wnkltxpRHV29UONe87jWoLa5TqqupJ65PvsquBp9dbHBq2Gs0byx85rqtbrrQteLbjDcyLoJ3Yy/udwU0DTd7NI8dMvsVmeLRsuN29K3K1v5WgvvMN3JbaNsS2/buptwd6U9vH2pw7/jVadn59Q953ujXTZdA93m3fd7jHru9er23r2veb+1T73v1gPVB00PlR/e7Ffqv/FI6dGNAeWBm4Mqg82P1R63DO0ZahvWHu4YMRjpGTUdffhk75OhMYexiXH38ekJn4m3T4OffpqMmVybOvQM/SzrOe3z/BecL0pfir2sn1aevjNjMNM/azc79Yr06t3ryNfrc+nzhPn8Nzxvqt7Kv21dMFp4vOi2OPcu/N3aUsZ7uvdFH0Q/XP+o87F/2Xl57lPEp63POV/YvlR+VfzauWK98uJbyLe171mrbKuXf6j+6P3p9PPNWuw6dv3shthGy6b55rOtkK2tcGIEcecqgIQrws8PgM+VABBcAGB4DACl225u9qsg4csHAn47QtLQO0QXMhIlhFpEl2A8sXzYKYpSXCClPOU61SC+mBBFvZdGjBZDO0vXTX+JIZMxjMmR2ZDFiTWELYP9IkcL5zDXEg+OV5BPl99LIEmwUOiW8KTITzEOcS0Jb8k0qSrpQZkvcqzy2gokxWylBuUhlQ9qBHVxDaM93poHtQq0r+sM6L7R2zRgNZQ2MjB2MgkyTTQ7Zn7Bos7yzt5+q0nreZuvdpA93oHFkdOJx1nARcRV0k3eXX2fvoe5p4MXiRjmfZD0l0+xb4Nft/9kwHIgRRBvsFqIXWhYWFZ4xf6OiBeRa9GsMUqx9nH74/MS6g8MJn48SJuscMghJS61KK0jfT4Df0ThqGtmalZV9kjO+jHhXKu8+OPlJx6d/HiaJl/ujMPZuHNFBR2Fb84TLigVu19MK7lSOlT2vYLzkm6l7+UjVZev9Fa/rtmqY62XvWrc4N4YcS3z+oUbV2+2Nt1r7rl1r+X27drWgjspbaS7Ou0s7YsdtzpT7hl34boedGf06Pas9V6/H9TH3zf54PhDi358/9Cj/AHXQe7B2cflQ37DosMLI1dGA5+IP3k3Vj0eNCE58f5p/eT+KcWp1Wetz1NeGL0kvBydLpjxmOWfXXh14/WROc95zTcCb2kX0IuId5RLHO9VPrh9PLLc8unrF8WvcStt37GrNj+Kfs6vS29Eb7Zsbe34XwC6inBB0iEbUW5oSnQtxhm+1dRTEHGsuIeU6VR6eDT+HuEwtSkNNc0EbSldML0KA5bhOWM/Uw9zO8sd1ma2a+xXOWo4K7nKuct4ynhL+Ur4SwXKBSuFqoRrRRpEr4u1iHdIdEs+kBqWnpB5LvtC7rn8M4VJxXGlJ8ojKoOqD9S61Ts0bu+5rlmrVa5doJOrm6YXqx9osM9wr5GOsZwJrymtGTBbNn9m0W1Zs/ek1QFrbxtTW1k7NnvIfsFh2PG2U4VzrkuCq6+blfuefSIeDJ6Q5wevKWKfdxOpwuekb7pfin9qQBo5LTA1KC04NSQtNC0sNTx1f2pEamRqVEr0oZhDsclxyfEHE5IOJCYmJh04mJAcfygOXh25aRXprYdHM94dRWayZ8lnm+R4/RV7LCe3PK/l+OMT8yfXT9Pli5zRPGtzzq8gsfB4Ufn5lguDxa8ufi/Fl/GVK1eYXfKojIBXSOGVuuqOmtHaN3U/r+IbuBtlrulet71BuhnZlN586lYFHMG6WkfuvGpbvPu4vbYjq9P/nkEXb9d690TPtd5j98l9+g+4Hnx7ONhf+Sh5wHFQ6jHq8eRQw3DGiPuo3BP0k6mxhvGsCfJT80n5KZ5nDM9pXjC85JvWmPGaPflqdE50PuctWMh8x7/06EPmss1n0a9UK6vfP/5YXHu/8WXH/xKgCzKHJhBuiPfIIOQqKhXNii7FKGEewjfaDYpCnBZumvIIlTzVS3w2YQ9hifo8jS0tFW033TF6TwY5RhTjKFMFcxyLJSsP6wrbA/YSjjhOKy5Rboh7kucaby5fIL+RgIDAJnyPahbOF4kStRYTFVsXH5KokIyXspTmk/4k0yF7XM5LXlr+h0InHB/slFmVp1SKVYlq/Goz6sUaHns49oxrntSy0iZoD+sU6JL0JPW+6N82SDe0MGI0mjIug+OFvOkPs3bzIxZWlszwfaLUimwtbf3VpsU22c7QntJ+wOG4o70Ti9Ok8wUXb1dR1w9uN90P7TPzYPZ4Dd8D0olO3pIkBGnS57pvnl+Iv3mABJmK/D7wcdD14PyQ2FDnMPVwjvCN/S8jOiLLojKiyTGWsXJxzHFr8bMJDw40JhYmHT4Ynux+yDRFOVUgjT4dSv90eD5j7sjC0Q+Zn7O+Zf/M2TyGyMXk4Y4TTtCeZDzFcpo9n/sM31nBcyIF4oVSRXLnFS+oFGtc1CrRLTUvI5WnVBRfaqucvLx6hblascamNqQuq77yalfDdOP6dZYbCjetmgKbD98qaWm9Pdb6qQ1/V7hdp2Nf54F7Z7rqunt6nvd+7aN5IPPQof/wo7ZBzGPPod4R89HZsaKJ2MmEZ5de4mZqXp95M/Qu+mPuV50fNdv+3/1Gt10wygBUaMMBAT437EoBKGuF80xV+PyoAMCaAIC9GkDYJwDoRTOAXM79OT8gOPGkALRwxikEFHa+cwSBVDiXvAGGwEeIBpKD7KEEOAd8AK0gOBB6iEDESUQbYhHJijRGxiKrkM9QtCgjVBKcky3DeVgAnHvNYYQwAZhqzEesEjYJ20NBS+FOUUXxHWeCK8J9pjSlLKXcoHKlasaz4hPwLwgGhBpqZuoU6o80njTDtEa0d+iU6RropenrGGQYrjGqMXYymTNNMPszr7LksYqzdrN5s0PwKtXjmOPM4pLlGuNO5hHlGeE9yCfB95T/qICawKLgeSEbYaxwm0iMqKzokliVuL+EiMSiZK1UpLSaDEKmX/asnI+8ggJSYVTxklKCsrWKsMqm6rhao/oxjaA9ZpriWnitD9ojOs26F/Uy9aMMvAwtjfSNtUzUTBXN5MxlLWQt5fbKWylba9jo2pra2dl7OoQ4JjnlOVe4tLqOu63sY/ZQ9yR5HSO2eX/2EfUl+V30f0nmDiQF1YaAULewu/ulIiqixKNvx7rEYxLuJeYdDD7knuqW7p+RfrQm6/lfrLmOxwtPDp9ePctbYFWUcaGrhKLMpqK08vsVu5rGeqaGxGuvblo1374tdudcO2VnYtdK78G+rf79A8NDAiPEJ7njNU9vTV1/Xvry0Iz9K+7XL+cL3lotbL2ree/8EbVc99n5K2ql4TvxB+PPvvW0Td2d+AEBNKACjIAXyABd2Psh4AgoAx1gFkJDEpAtlAhn/+MIDEIOzu2zES2IJSQP0h6ZjexCbqLUUbGoJtQqWgOdjO7GEDCOmFLY65rYv7DTFIoUmRQzOA3cOdwPSjfKdioRqlyqn/gA/ATBjNBGrUxdTyNJU00rRdtIp07XRW9DP8MQyUjBWMKkAXs7Ds4w77PGsAmxTbD/xWHIscl5myuBW4N7k6eLN4fPkV+A/5PAPcF8oSBhfREukZ+iT8Vui1+QiJW0khKXxkq/lemTrZM7JZ+kQFZ0UjJWVlORVhVW41Xn1GDfw6HJoyWkLaWjomugZ6/vZ5BgmGuUZ3zK5KzpBbNK8waLNsv+vc+tPtmgbTntVOxtHMId85wancdcNtxE3G32JXvUe84QmbzNSYd97vqu+WsEJJLvBqGCLUJOh86Ey+5PiRiJEoVPpKk4lfj8hNVE96R7yZKHzqZi0mLT32UQjzzNtM8ayrH+azTXJW/6BPmUZr7wWYYCZOGP85+LP5Z8LvtxCXWZ6Yp4jUGdz9UjjVevv2yiu2VyO/1OdztVp33XhZ6XfcwPDR8FDCYNpY8kPwkY139KmOx7Fv2C8WXpjOBs4WvsnN9821vCgt3i6XcD71EflD96L+d8uvp59MuXFfpvUt+NV4k/Dvw8sVa1fndjbHNxx/8IePfTAz5475sBH3jnl4IesAQxQbpQOFQKjSHwCG1ENKIW8RYpjPRFXkYuoRRQiaj7aGa0H/oWhhrji7mL5cAmwHdOLYpyHAF3APeBkkT5jMqZahzvhp8lhBDWqfNoxGh6aMl0dHR36MMYhBlmGEuZ/JnlmTdYOlmz2BzYhdhXOQY4q7iOcJN5rHhV+YT5WQTwghghpDBahFKUUYxPXEHCXJIslSldKzMquy4vrGCjeFCpWvmpKoWairqvxuk93Zor2sI6zrrZeu363wwljQKMr5i8N1MwT7Lo28tqFWjdZstoF2Lf6yjolOo846rvVrEP5xHmOUbU8q7yYfZN8/sS4EvuDeILTgqZCtsTXhKBjQyLmooxjW2Jl0ooS+RIyk9mOHQylSmt4DB/Rs1RlcyebMecxWOH8tiON57UPXU7X+lM4znZgmtFyudbi/UvPip1LVuoSKgkXC67olE9VhtZT3/1WqPTtc0bl5qsmzdaals92ujv9nWk3tvT9bWn5n7wA+V+6NHA4Pkh8ojC6MpY3cS+SdRU0XPhF+XTLDOxs/2vWees59PeVLy9u/BwcfDd/aU770s+ZHx0XhZd/vqp4XPoF6Evj78eWBFcufPN8dvy95RV3OrxH+w/Cn/S/8xag9bi1+bWLddvbHBtHN5Y2NTdLNj8smW5dWnb/5F+CvI7xweE1wMA/WJr64swANgTAGwc39paK93a2iiDk41nALQH7/7vs3PW0AJQ1LuNerrqlv79/8v/ABGq08zzBZgpAAACtmlUWHRYTUw6Y29tLmFkb2JlLnhtcAAAAAAAPHg6eG1wbWV0YSB4bWxuczp4PSJhZG9iZTpuczptZXRhLyIgeDp4bXB0az0iWE1QIENvcmUgNS40LjAiPgogICA8cmRmOlJERiB4bWxuczpyZGY9Imh0dHA6Ly93d3cudzMub3JnLzE5OTkvMDIvMjItcmRmLXN5bnRheC1ucyMiPgogICAgICA8cmRmOkRlc2NyaXB0aW9uIHJkZjphYm91dD0iIgogICAgICAgICAgICB4bWxuczpleGlmPSJodHRwOi8vbnMuYWRvYmUuY29tL2V4aWYvMS4wLyIKICAgICAgICAgICAgeG1sbnM6dGlmZj0iaHR0cDovL25zLmFkb2JlLmNvbS90aWZmLzEuMC8iPgogICAgICAgICA8ZXhpZjpQaXhlbFlEaW1lbnNpb24+NzQ8L2V4aWY6UGl4ZWxZRGltZW5zaW9uPgogICAgICAgICA8ZXhpZjpQaXhlbFhEaW1lbnNpb24+MTI2NzwvZXhpZjpQaXhlbFhEaW1lbnNpb24+CiAgICAgICAgIDx0aWZmOlJlc29sdXRpb25Vbml0PjI8L3RpZmY6UmVzb2x1dGlvblVuaXQ+CiAgICAgICAgIDx0aWZmOkNvbXByZXNzaW9uPjE8L3RpZmY6Q29tcHJlc3Npb24+CiAgICAgICAgIDx0aWZmOk9yaWVudGF0aW9uPjE8L3RpZmY6T3JpZW50YXRpb24+CiAgICAgICAgIDx0aWZmOlBob3RvbWV0cmljSW50ZXJwcmV0YXRpb24+MjwvdGlmZjpQaG90b21ldHJpY0ludGVycHJldGF0aW9uPgogICAgICA8L3JkZjpEZXNjcmlwdGlvbj4KICAgPC9yZGY6UkRGPgo8L3g6eG1wbWV0YT4KADmIQgAAMvFJREFUeAHt3Qd8DGkfB/BfOoKIGu20SJAgUU8vURO9tzjtlLvTuYZzuOPVzh3H4ZS7Uw6nlziinno60csRgqhBRKS/zzOzs7vZbAiCDb/52OzMPM8888x3ZsfOf595xsrZxS0BHChAAQpQgAIUoAAFKEABClCAAhSgAAUoQAGLF7C2+BqyghSgAAUoQAEKUIACFKAABShAAQpQgAIUoIAiwGAeDwQKUIACFKAABShAAQpQgAIUoAAFKEABCqQRAQbz0siOYjUpQAEKUIACFKAABShAAQpQgAIUoAAFKMBgHo8BClCAAhSgAAUoQAEKUIACFKAABShAAQqkEQEG89LIjmI1KUABClCAAhSgAAUoQAEKUIACFKAABSjAYB6PAQpQgAIUoAAFKEABClCAAhSgAAUoQAEKpBEBBvPSyI5iNSlAAQpQgAIUoAAFKEABClCAAhSgAAUowGAejwEKUIACFKAABShAAQpQgAIUoAAFKEABCqQRAQbz0siOYjUpQAEKUIACFKAABShAAQpQgAIUoAAFKMBgHo8BClCAAhSgAAUoQAEKUIACFKAABShAAQqkEQEG89LIjmI1KUABClCAAhSgAAUoQAEKUIACFKAABSjAYB6PAQpQgAIUoAAFKEABClCAAhSgAAUoQAEKpBEBBvPSyI5iNSlAAQpQgAIUoAAFKEABClCAAhSgAAUowGAejwEKUIACFKAABShAAQpQgAIUoAAFKEABCqQRAQbz0siOYjUpQAEKUIACFKAABShAAQpQgAIUoAAFKMBgHo8BClCAAhSgAAUoQAEKUIACFKAABShAAQqkEQEG89LIjmI1KUABClCAAhSgAAUoQAEKUIACFKAABSjAYB6PAQpQgAIUoAAFKEABClCAAhSgAAUoQAEKpBEBBvPSyI5iNSlAAQpQgAIUoAAFKEABClCAAhSgAAUowGAejwEKUIACFKAABShAAQpQgAIUoAAFKEABCqQRAQbz0siOYjUpQAEKUIACFKAABShAAQpQgAIUoAAFKGBLAgpQgAIUoAAFKEABClCAAhSgAAUoQIH3UyCsYVWgvAeQzwWwsVEREhIMGAlWunm6WVqS9g6Rro2bvstF9MvrErU8idJMylbS5B8zZZtNMypUG9XWK/Nrg2maNi3TtXHl3Wi9idJ0mYzLNl4uLha4dQtWp4OQZf8OueRrGaycXdy01b6WFbBQClCAAhSgAAUoQAEKUIACFKAABShAAcsSiMuZFY/6tAIK5jUKuOnqyGCeIbgnSbTImeaSXDBPyasLft4MQeZVf8Im7K4ONfXeeJtt6lmyJApQgAIUoAAFKEABClCAAhSgAAUokAYEEgyBvDRQ2zRZxdz58Kh5e1F1LRKYelvBYF7qWbIkClCAAhSgAAUoQAEKUIACFKAABShg8QJhDaupLfIsvqZpvIIu+fCwYq1U3wgG81KdlAVSgAIUoAAFKEABClCAAhSgAAUoQAFLFRAtxSqWsNTKvXP1ivcoKbYpdVvnMZj3zh0m3CAKUIACFKAABShAAQpQgAIUoAAFKPAMAdlPHoc3I5BDPFgklQcG81IZlMVRgAIUoAAFKEABClCAAhSgAAUoQAEKUEARsLFNdQgG81KdlAVSgAIUoAAFKEABClCAAhSgAAUoQAEKUOD1CDCY93pcWSoFKEABClCAAhSgAAUoQAEKUIACFLA8gdTtvs3yts8Sa5TK5gzmWeJOZp0oQAEKUIACFKAABShAAQpQgAIUoAAFKGBGgME8MyicRQEKUIACFKAABShAAQpQgAIUoAAFKEABSxRgMM8S9wrrRAEKUIACFKAABShAAQpQgAIUoAAFKEABMwIM5plB4SwKUIACFKAABShAAQpQgAIUoAAFKEABCliiAIN5lrhXWCcKUIACFKAABShAAQpQgAIUoAAFKEABCpgRYDDPDApnUYACFKAABShAAQpQgAIUoAAFKEABClDAEgUYzLPEvcI6UYACFKAABShAAQpQgAIUoAAFKEABClDAjACDeWZQOIsCFKAABShAAQpQgAIUoAAFKEABClCAApYowGCeJe4V1okCFKAABShAAQpQgAIUoAAFKEABClCAAmYEXjmY12/eChwJmGymaMMsO5uO2HxwO5b19VFmWlsVxw9LlmJ34GrsNHnt3r4ac4fWUfK9TNk21lXw2/bN2DK1h6ECzxiT+Rdv34Z/Zn72jFyWm6RYrliW2HL7OjG9BDO/6fBCFU8o3R07jhr2k7mF5fp+E1575g7WJ0fW+QzLA/7EzH7q/tUnpOKIrXU9TBfbuXLqp6lYatorqvYX03Hi4AoMLmlvtvL95q3G6e2/wNts6tuZ+TKfY0s6R0i1LxasRlDgVItyTXZvlv4Uu44GYt7HZcxmKdH/R5w6uhYjkjmGzC70mmeG+Y/F8aBN+K52BrNr6jlrBU7tmoP6CVZm0zmTAhSgAAUoQAEKUOD9EHjR6/3UVHkT172pWd83UlYWVwTWbIBjNevhWC31FeRTH8dq1MAPrnlSvwpWefBHnVoIrFwi9ctOYyW+cjDPrWghFPRuiPVDyyW76YP+6o1y+fKgaAl1Z1pb5Uelql4o4ekG9yIF4e7mqn+5FnVF8cKFlLJepmwrOKJw0Q9QppxXsvUxTqj2/UA0KJYXnk07YUT8K3MYF/1GxqVluXKlhGVxFBGWyqtAfrh7eqNNn5G4vivlgZ3IgoVRzEXsJ9fcydZdrq9w0TxwL15Qn6d1Uz/U9i6DNu2a6+e9yog8SQYELkgUsApvXAdtKpdGzdYt0fI9vaCX/3F90d0H+fJ5ovfI/maJ3dyKwKWYK7zfgJG5/WSuUi/zObakc0RMnZHoXac48nrWx5hnnOfMbfvbmDdu8kfwcPkAzfoNMRt8LOzqitwurihc0HxAOLXr/OXcRfj7OT+W+FcohfzZC6J+0xZmV1/Kww25XQsgr9lUzqQABShAAQpQgAIUeF8EXvR6PzVdUvu6NzXr9tbKyuiM6k5OKO2UGUUzZlJehR0zoXTWXBhYqiquVi2VulUrkBcdcmVDnUIF0TElJecvhj1NamB41rQX63ne5r3yFoVHOYh12KBy535mLxytvAbh40o5lXpEPg7X1ycmLgExZ9bBpbAXXAp4Gl4iUFG5z69KvpctG3FATGyMfl3JjcjWPwMaeYhksQCc0XZhylrzJVfe25wfc2E18glL7eWStxvWXnyE9K61MWlE3RRVzT5CzRb7vNyCKy7WkOvv/lMwbdEyDB8+9HlLpii9ddMG+NCzAtr1aKPP77h2Pkb8shTTR36HFVYJ+vnv04j70F4on8kKccI/24eNMMRM8DkqNl7snBg8fAMw5vaTudW+7OfYEs4RcnuGf1IHTuJdniU+bNNHzrLYwcFuIJp7iNrKymYvha8+zpqkrlbR8twYj+efIZMs+sIzZIvapvXLoUIj32cG4dU6JV/8mzyuk68FUyhAAQpQgAIUoAAFLEJAfNdNyfV+atc1ta97U7t+b6W8WPXa/HzwfjiuW6G+1i6H1Y7jOCnS8ucsgpm5XjnsZNi04PMYcuY/TDl8FIsMc5Mda1YoPypnzQ5/D7XBWLIZ02DCK6vaQxcByl4Rk76vl4Rg7LhW0F9O2mdMnG777JYhr1R24jWZnbrX81NUz26NS8umY01IHPLUbo1ub6BFk9nKvPLMxJZx8XvQadRmRItyM2fP9WKlR+v2aQqXio3fjJFDRmDGtsgULvHsbBceP1UyxETf0WeMTziDmaO/wYjZ2/Tz3reR4a3EbZNxlzBu4hYRP3dB22nJ30b9WIcTUcr2tTGZ20/mVvZKn+O3fI6wt+2G9uLHiPgLmzF541VY56uI+Y1NzmPmNvotzes83xc5RZhu9egZuAo71Og8KvmaRIjA72seEsT/D0+jxX/w4guXdky+5lWyeApQgAIUoAAFKEABCrwWgdS+7n0tlXxbhVqnS7zmsHMYeP2BmGeDbHap2FVOwkP8eOQIBp29mXh9yUwdilEbIcXGqTGGZLKlydmvHMyDrQ0QGYJTd+Ph3b5voj6N5O1pnbyyIfTkCaWlkF0SIhlqesbwSmU/o1xd0iL/amIsDGv7/oJxW46L4+wDdB3b9PkLppEcCSKUp7W+kfvi8s1z2PV9M33t5W2bm86fxfXN/9PPU/K7+GBHUBDui/zyFfyMPtrkgtF1vsJFk7Jrf/Ejjp83lBF6eou+Tz3/byZh18H9uKMr/37IEaXPQlmfDWK9+7qUVOpTrP0U3Ak5h1tHF6GBlUg7fQbBG8bo6ypv89wsytHqeT94H9YZ9ZUot/nizdPYNfdn7Eq0PUsTBW17TluIi8Fn9eWEBG3A1I4pu01bX5nXPBLZdAJq57PDvf3b8ePUn3EwPAFFGrdN9HlTqyBOVtG2aL1wBUKFb9SmU7gffABbTG5zrPXFpET7J0T0VzbLqI+1cVsO4P75lYnKrznuT2F0BNN8aiS7n8z2afZKn+O3e45oPb0FPhCwh9eNwfipW8V5zA71+g5/zXv75Yq3s2mBbtXyi1PaCXSb/RM2HhO1da2CaWb7oYtD9jY/4KT+uD+JoICpifZ3Sj5fzzqn1By3ANevz0Pp9OI/b/siWHhdHIs3j2N9ClsKP0vBo9dYHDptOL/c+W8fVk7q/qxFmEYBClCAAhSgAAUo8B4JfDlzSaJrvPO7FuJTkz6j/7dkDULE9aZ6PXkcm6Z+p1wfX1hu/o4z0+vemuOWi2X3Y+nMOThr/L167bj3SPoFNtXKCX/UaoioVm2Q0Fq+WuJk1cS9vX9cpiputW6FhHatlVdw3Yr4s0FjJLSoCeUK3Son9ojlHjYoq67YKjN+bVAfUf4tkdBZLNe5JW43q4Eh2XJhd9vmuOauNi0rUbQiYj9qiag2NeEnGxNmc8O2Vn5I6NYCCd3Fq6sfNlSQV37qMLVpI1GWD1b61kZUz+ZI+Lge+ljYDYKvHsyDaPlj8wRzft4KpHfDyKmGYNGs4S1ED3bXMf3nozJXksHOuTh+mTQec2ZOMbymjjS6Hevly06yMpMZMtDjVyQdIs/sxBjreFwe/hfOiRYkHs3bmL1d2GRxy5uMTRr0mDaojvAHHt29BSvYI70YT5fR0KpI9jeQXtwl7ZBO3ioNyOCfjFsXqVMXhR6fxoJf5mHF3ivIJG59HrZmhdF+UbLr/8Q6ZoQsVSvbo/8sLB3QEPkdHmPPmuX4fc0u3EqXD81bNYK87a5bl0bwcHqKfVs2Ys78ZTh0x1b0WfgJln/6FJvXbcC2s2qLvMhrQVizfjPWb9yKLVaOyOQoapxJrb9sMXX+t76iL8b0OLllLX6evwqnIjKjSuuh2PtTJ33dbMQvAR6+dZH3wSmxPQux6WSo2B4vjAwYreQJ6/Uzvm9VHulvH8fcKTOUut5zLIKWvT/Sl2EJIz/2rSn2YAT+njEdspXiH9svKp+3QZ/rTmJaJWNFE6j0BdCiTkEcC1guXNbjv6jMKNO0L3ZNVD+bYf2nY9mAxmL/3EfgokWY89cuPM1eEK1Hz8FsXasze1txTGTIlKiPskz28tcWe2TMcDjZ/bTJ7C3QL/85fpvnCHms+td1FT9WnMfsCXeQcOx/2HzxKdKXrInvS6qfGY3dEt6rfNcB7vZWOLthmVKdATN3iE+0I/z6DzKpnjhGkA41m9ZC9PFtmCM+F7uuRCKvd33MDhyn5E3J5+t555RV+//BqoB9uC1b5uEpDm/ahPUB27B9z26T+rzYpKzbom9bonC629gwf55yjJ+65/Be96f5YoLMTQEKUIACFKAABd5tgX4LA/F5U2+kv38Ky8T3xSU7z8LZtTzGiGta7U68ket2oWeNYrC6eVKX5wrKtG6tdGuUIVces0Cm172ZlJvjnFG3aTU8OrRVXNuuxonQeOQt3wJbU+EHbLOVsMCZWgMi46rVdy2DufmdxaxYXH8srgdEIG9J3drwz5YJV+5cxYhjJ7DgzhN45C6Kq1WKKYsW8q6J2UVzizuNniLgyiXMuBKKdNk+QDtnce1l74DKSi5bZLIVcQE7talYv1qV0CNHRoTeuYHJJ85j6c2HyJA5B3oWT48NV0IQGKa2yHvyOAwrrlzH6uAb2GBVGGcalUStzDbYcfEivj50Htsf28C3ZFkEeIprVzE4iDZrcMiM5vky4fKtO1hw+ip+ScUGhspKXvGPWtNXLAQ2Ngid2Rdrep9G05afoFu/1ZjceTxauafDjQ2/4Zfgghhhsg7Z7xeyu6NtR3eTlAjEB07GinW6m7JeomyTAs1Oqv1gxSBg7lglPSZuJebt6oPxPl74RvQz1fzX+2aXs8iZwtLOrQEuna6pr56jcxYRdhF9CYQex4zRW4C6hjR9Jt2I3BVykBfnygERdhgFKnVQZ2I8DoiT4XgfNwye1BRrvniim2940/rak3NkP4TfdqkuQmgPsairD/puS5q/VmH1w6qVkG5kBM5c7YqCJUrgpz5f4m/xC8e+YjkQvHseegzdpGSTgRU5aHXttagz8osP2NF5Q+EzbLOSZjfiALZeGAvPZh3Qst8iLNW25+YOFK7WS8ljY70NWy7PRelCRZRWSHaeBUVd47B5dHcM1Y45Jafl/JH9Tsp+0GKubNZ7/vXpSgxt8gXKdhB9uE00apEkW8GJYe/Yemg07a4y/t03p7DnyhfwaNkdrYaeQ/MuNZT9M79RPQwOilLy9N06AXdnNkXToWPQc91AZZ44esz2vSdP1j99bX4/6RZM+vYSn+O3fY5wG9oJFUSrsuDVy/T9NLZZuAux39ZFi6E9MazztKTb+Zbm6Pv/jLuKOUPWyA8z0q/5HFu/9UXDCnVF/4pjMUn8aKEO6jHycM8clGk1UZ01egwWHzyBBiXriZZ8o3G+V0o+X8lvrPycOq/5FZ+tO40tFz9EzsirmNJtEMwHe5Mvx1zKQ79icBEJwZumw//rlWqWr3U5Lew/WHP15zwKUIACFKAABShAgdcn4GAr4hE+ooVV+Cl082ql//4ZMG0V/mhVAn1E46P58wuhfTnRr3/YcTQq3wZHddUJmLZR5Cks4k/mm2AZX/eqi6jfq29t+B4VevyhzLJeFoHgjR1RqFxFMR2oK/ndfpPf/d3yl0GCeCUaEqLF9flBDHggrkMKFUOrTLa4fO0o3P+9IFsSARfO4mHdZvgsd0F0wE30KJBdzIzBrC0B6B2mXrt8erU8YquLa3aR/4FR4VpcoGxG2WTpCb76ex8WJxjtN2X0ChZ8WBvXnNPhys3zaLv3ulJCN/Hk3WLi2mjN7gA0Oy+aM4m8445fw/6PasOnuNiGkwfE9ZR6YbFl7wbUPSnyWOCQCi3z1K2S7aWa/fA34sStqn3E7U6LetWHvbiw/KH7AkRnF5FUk0Fc2yPmQgCy5nY3eZURwQRdIE+3zIuWbbKqJJNaP1jAbRwJr4w+PT8Sr7aICros8tqgmv+oJMtY/IzoJ7h56zbu3gtTXsFng7Bq/njk8m6jD0SkZBtkfPvShr8SZf3ltwNKz4h2pn0eJsqlTsinkObKKg780CB94Mk0W3zpTvh1yWL8u28bzgXtwsnLXZUHDGgPSHGzV0+KdvY5TBfVT7vnlVH+UGz8SgQqdYMMyB68Kvr7s3dCiVJqpF4mXdq1S8siYhyiraL85DvmUFqdLRO3Vz8U+7zp7AM4tW891i74EcM61dLnt4SRHkMail8ngBvHrqBZp87K8drBNxynxK8+1i6mfbiJcKzoV2/+1Hv6qkfHzsM/okUZRMu6zGL/5M8q8oj9owXyZMZM67bgYmQC7Jyzpbhlakr2k74SYuRFP8dv8xwh6z20VTnxNw6nzsSgs3KO+AjdQ8+Jow7IVbuJ/lc9mfdtD1r/n7h2CWFNW6nntE6+CDolW7ma618xBoGilafxMPufS2JStLx0tMaLfL6MyzAdVz5vcqbYmXL/JzckKL9qJpcq5xv+A5XH6hlxm3mBZuMQfHQLAlfMxk+ft3/WwkyjAAUoQAEKUIACFHhPBML88io//N4S3RMZ/5C8as0x5Zo2S15XRBTIhizC48beLfpAnuRZtWa/0pjB1kYN5KSMLAb71+h+YBYLaLEPR3Fd9b4M8ur95v0b+OG/i/jlvys4p2tDEHLrLOoEqQG0ls4ZxVW3iOnlKY5Lvo1xvVFjBPv5wj+LuBCwFiniTrzsom+9uCd39YE8xe9GME6Ih6fKxgrmhtV3HonZGbCoU1NcbOKD9dXLoWdeuSZ1KG+tLmhrI+8yU4eKTnLcGg29fBDczhfX2/siuHVlVBQt/ux1QTxlhQkRWBlkuA7RlreU99RpmafbGucFA7G0WxV06DQURcS8swunY57Z2+5efPNTs+w2Uxor/WBBhHOGz/oxSWWsi6r9TJlrVZYksyXMEMdqzKV/ULX2FymojQh26QYrK/OX1zFKmFzLpd5+a5hK4Vgyx7xsZXZ+Yy+l6eyVk2dw8mIo7mfwRMvK+UUcIZlPaHKrjIvGfZPjK1pZrx1y5lAPbUNIz7QQtdVZhjXDxIn8CtZ2rgtvt8KoWqeoeDVEO785KNle12rJdNE3OC37QfOX/aCJoUCznpjXzHTl1qjdW+z3dSMMCXGGUcOYukPkqU6eReMjk7aYVPI6ZETOZB4Ck2CfvKZhPc8eS83PsemaUrNs2Udhw3zqfwK+X42Cr+nKdP1rzhu22jTlrUwval9NXW/BWpg7q1aSOhRp3BL1RWtVwxcaswdJ4uVS8PlSF3j2OUVVTFy06dTli7fFrBKms/XTGR1ktM9OCfrLjofrFuuHib92QOVSRVGycg2UFa92rRugQfmPEn0h0xfAEQpQgAIUoAAFKECB90rgacQDs9trnz6zMl/ebZQpd/5EeRzuKs25Es1LyYQs630e5FViePg1DD4RrDIcP4ANDVvB18UDi/JdQEfxsFEtGhcW/ghnoxJEEwLdEB6B6KcPcVY3aWOXDo3E+HotXbzHyOBgMhcVq0QDoVbh3visQA6UyOgEvyzO8Cv4Adqc+Ad1jt41KsVoVBewOxP2CHesDe3bzou6hd6TjSG0IT5Ra0BtrqW8p2owT25U34Er0WpjV9Eq7wJG6W73Sn5jo5NPMpPyQmWb6UNOFilv1+xev7gYC8O8Xl9id+acygWiTLN6dAuxNfpiaoeSSj9Tfbd9J2enjeE5T/2MFg3S5GBr1LouvFFVeIoAWoxRM2J5Iirm10I0SzIEKbq0Lq/0vRcTbWgxaWNr/tCRF9qXbsfCM19JTBb9ihm3/pLrL1bfU2lldnZeT1Qe9q+chTD/KUgQwTw7ZS3iRBAtWpGJwfhptsoMoz/Hr9xGhyIfoK3oM27exENKinyARpk8GcTPIRexY2ukuLXYaIFnjMrbAT8SLznIMtaenINKlWuJPgInvVCrxmes4qWTKk/ooOyjhweWoufUvciTW/3PRxZ4I9QBQ2YMQ/kydUUfbt9hmLxlNlYE7cTDBjr1dMYK3a3idjYdUbmQOADibiEhPhDX7oj9U6g8xsZb42vdrZeRtSshv7ilNPLMBSXgU0+psRo80Srf+EPR5Fz/SJWU7SdtWeP3F/ocK89jNl762eMvVHYy5wi5hhlKH4XAwRmjMPF4GPJmzqRb8WNct6qKXye0FP1rdoC3COZpzfKfXbPXl6r0/ym6NJC3CQzq+zMScrvoVxZ+MxRVvpqErh4lMOibOtg0JlCXlg51P/YHts3S521fuYgYj0OMeMptSj5f0brA8rPOKfJptpEyjmwT98yn2Z7eeQ63v6yJIg3bKrfIrzAK0of1mgLfguK/+9Cb+h+H5HlmYHf19nq5ASPX7UX/cl7oI/p8NG3ZLdM5UIACFKAABShAAQq8YwLJfJfPsuGScidNgaoNxR1HC/Tf1ev6FFOuNs+ePgyn9dYIiWsF99LVMUJcE8k+9OXw6Vd11DvGZEswDi8mYJ244Yff2euI8sqPth6VRTBvF1aEPxFXGs4Ii7gOv30X1NtstTXoGpOcfhKHkhmzYGjJbFgfpLvTrIQ7Ksin4T6jLcKKoKNYESQKk7fZZiuJW37uqPaBuLYRwbwH8eq+NX6a7ckIcd3sbI0rwQf1t9lqVTFp16SfbYkj5iMyL1xTw0W/7CS+55R4lDr7t74ViBZIMi1Wdm4/Z+oEEXww7Hg5en7NfHy39oQu+0uW7eKJJeIppsZlwy4GodF5UTqTFW4EzsOQtTtMqwTrdbfRqt5KVK/QUHywx+o/2EkyWtiMZALV+lo6BocrF9MFGvfGgrDsOI1CaNe5vpIeqwvQaA/AgHNFnA+YgZmL/0WuWr74yLeoCJCpfXEl2FRGeEQCrAtVx9/iYSX/XDyM0af1q1FGFiw/gEYDqqDrmgBk+W0dLomGzvVa+6HQ3UDk/f6m0rzZrfkwjDkzCxeyVcXXX/oqyz3VBQsDt55FRJcyIqg4GDPDvRApbtPe039/opVM/20bBvt0QflBM7Ay1xIEXrVBg/btUV58KIM3rNUH4WRw0nSQt2/KwUm8xgXuRa8CkdiwNhB7j/0HhyI14S7KQOhd/GcUUFAWeMN/ZGBxQEMPsdbrmNz4WwTq/pMxrsayuTWRMKAqWnzdC8PaTxVJ6lmuxugALMj9O/Y+yIbmXdsoD0a4tHqV4nJ/9VE07F0BvS/+Dcc5f+JyOg90Eg8lySqOg4A//6cU/0j8QiKf7jxk43S4/H0O7nWaoLHSUs0gam4/7e47Rm9vXE+tVZWcZ+nniKDdj+En+iiMD9mO+mMWJ94MZSoAM5tXwxeVSuObvmXRfNphM3ne3Kzv+ssvHXHYMqU3ftt6P8mKN+z8DX7X+qN8C394K8E89RhxqjkI/8zNjbnbb6B2h45oXNABMRc3o6fo5zJa9C35vM9XSs4pcfF7cETc+l7eowjGLJ2IsqefIMvTg/h8wrpE9Uw49gP+3Ncc/Su54deru9Fl4w4cvfEUBUpXQn0RZLQXx+aWeT8py8inhq3sUhgHAjZi078ncB+uqFXEWaTdx7U1osWp4ce1ROvgBAUoQAEKUIACFKDAuyNgl8z1/snFs7Hq0G3xQ29ZrNj1G+Yu2A57z7ro1rqMuFS6jsWD1yJGXFdNX+WPqaIPvYE39qP+mRuwzV4Abi6iYYgcxO2WLzIYohnislnXiOZFlk/reQ1XiEZbcnkflhXOjU6ZXbDFPRvqnLuI3eLhFjXyeuNSjWyYfvUesjplQ9P8eeFp+xgdV2xGu3NX0aBsIVT3qIXgfA9x3zodvDLJW2LFYG6XWOXB/jYfovjTB1h+5Qb2P45G6by5lMZDN5+oDZG2hzxAhFh/iQIlsSA6K56mt0XgmWu4nq8Ymlb1xXYXcZfe3aconDMnWhTMiYxhV+G0Sm0spK7Ycv++ejBPlvDoDo4aBT7WTpiAtUbbLC/6RDspMRhux4oUwVD5AIwWrd2VFOM/t+z+U4N5r1K2syvq+boaF6uMP3gga3IXSzvNMXvRJ58U+tPyQ6gugh1VR/oA+pYsSYqynBkiOBX11NBqzlzFZADl28WlMalDGfh17Q0/kenBxSBc+sBTd8ux/HyoT7y9fvAIrErXxvCJYvvFEBcZioUjWqmtYsTF+dBZm7Dhy4ao0LoDKkR64VDPY2o4MFrdv9vGd8OwfAvxVfPyaN6nj1IG4h5i57IdsBVPnh2zthhGN/HEpxN/UNJCz55HRDE3pNPdZmu3ZRR+/qcSvqheCG36dBN5nsJxzcFEwXj7LePQ8tusWPxFY9Ts2As1lZLicGXnEpTp8asyJf/IE6txi8L4hGsIfZQAT8coESITneiv3wPfT33h17GreMklxC2oYcGY980n+l9x1Llv/m9k7erwEoHFezs24mczgTxZo+wT52HfR5VRqfSHYkoE8+RTaKNDsOu8Lfz6DFD2swzwXT+4EuX7qC7bR/njy+xLMKKVN/wHfqlumNg/e+d9j06/hinTY5tNQuVjo1De2wdDxAtx93H4aAjKemcXH2P11w2z+2m1aM1o+tCTV/kcv4VzhGfeEOU/gL1/GI4jFcnwd8LoVfhY3C7uVaM28BaDeTLgW8kjhzilHcC4ZB7aExU7A38e6iS+0IhOZ0Vr2f1KG/WnOLL3P3j6tscUNZaO8JBjGFW1n/IfZUo+Xyk5p0ixgf9bhLozusO1RmMMqSE+j2cckgTzZL5RLaoBS9bg46rFUEX0+1dFzhRDdPgdBC6YgLY65+1LNmJ/nd740LcVKoiXMsjzy4zxaebHF7XS/EsBClCAAhSgAAUo8DICSiwhmev9Ire2omKTnsi54We0966EwaMqKauICxfXeINb6K+rFvZtDjyegQGNKsDVzRVP74uHJUw5ghoD2yJ3jGjhZWaQjV9i5Hzdda+WRd7Zog3OG64rt2Zmfc71uZb/XXiX19xPY9W764y3x//kf/Ct7IZK+QqJPtgOo2bAIeyoXxo1cnyAyeKlDPHR2HklGEoTiouHRBdYsTjgnh8emTIju+j2Z+uF84jLJ2I74jJXG9QOpMRUwg2svnYPxQrlQLeSWSEjB3K4L+JTQwJ1LY6uHcOkGzkxMk8mdPJ0E6lxyHBpHfLttcOZsgVR09VVvJTFEB31GAsu/KdOpIG/Vs4ubuaP1BRW/mkpD1Q6ceq5gY+SPtVhu/Wf5+YzXu3rKFs+9bG0CNg979a4kj4lEbRVttV8twa5/U0bFxSt67Zjy9aniC5dDY0S9mPzCeW0BLmfgsR+kkOdJg2RSTwZZtXanUkQZDk+tXPg7nP2aZ0mNWAVcR+BJpZaPSKubFHW/UCst5ZJWbJubQtkhJYnSSV0M7R6XhH1NN2v5o47eVw1wXn9Nsti5LzGObKJTvrDsMqkrsmt1xLnS9c6JS8q26b5PVljaCVrWmdplzlCdOyp2+em6aV8GqCIY6T+GKgr9lOgSV5tPcntp9fxOdbq+TrL1tbxrr2rn13xi5Q4zrXPIcT5YJU4H5gbnvX5kvm1MpI7p2hlauWYO59oebR3eZzJjmwzipB7cp9HdTsKiAd2GI5PbXm+U4ACFKAABShAAQpQQP7w3aRRZjyOCElyPWruOuJp0x8QPtMPIcvGwLv/whQB1hVxA9NrXXPXtikq7E1mErekhv0+WgTEjFaq9Z2uzUv0dFhd0zh9mm45bVo2ndPGTd9lVn3ZIjGLC9pktEL441vYKJ9aq6WJ+40aZAnH3/fFPP1QABfaVUChxyGwXSvu1tPKlunKuLpej6xZkD+daBYZeUNdXsunlZ0tl3iarh0ePxLp93TlizT3fLlEfAgIiryNM/fEiH45J9TPFo5Nxv0o6tN0I1rZ+rpodZLvOi+jNOfvPxcNJ4zmy7RXGF45mPcK6+aiFKAABShAAQpQgAIUoAAFKEABClDgjQpM3n0cXYvY4OLRgwg6fRmPMhZGw0aVkNMmAgt7Vke/dc++8+2NVvZ1rOxtBvPk9miBMWVcDXDVLl8PWws54Xb4fewNe4gbMTbwyZsX7ulscPzSQXj9G2yynFxYLKuVlSj4KNPEYBxUU+cY5dcF1rTllfy6TMo8o7ITpekWMC5bK0P/rivbaLnUDubJG+A4UIACFKAABShAAQpQgAIUoAAFKECB90Kgz7fT4DrMHxVLVYard2Vlm+PCb2L1tDHvfiDPQvfwtoPHsMDRC02yO6NZpqxqLRNicejqaZSXgTwOiQTYMi8RBycoQAEKUIACFKAABShAAQpQgAIUoMA7LGCBLfMMLeyM3E1byGkt32SWJGlGidqoces5rVjTNG1aX6aZshOl6RYwLlsrQ//++lvmWWvbw3cKUIACFKAABShAAQpQgAIUoAAFKEABClDAsgUYzLPs/cPaUYACFKAABShAAQpQgAIUoAAFKEABClBAL8Bgnp6CIxSgAAUoQAEKUIACFKAABShAAQpQgAIUsGwBBvMse/+wdhSgAAUoQAEKUIACFKAABShAAQpQgAIU0AswmKen4AgFKEABClCAAhSgAAUoQAEKUIACFKAABSxbgME8y94/rB0FKEABClCAAhSgAAUoQAEKUIACFKAABfQCDObpKThCAQpQgAIUoAAFKEABClCAAhSgAAUoQAHLFmAwz7L3D2tHAQpQgAIUoAAFKEABClCAAhSgAAUoQAG9AIN5egqOUIACFKAABShAAQpQgAIUoAAFKECBd1zA6h3fPkvbvLhYIJXNGcyztJ3M+lCAAhSgAAUoQAEKUIACFKAABShAgdcpcOX66yydZRsL3Ak1nkqVcQbzUoWRhVCAAhSgAAUoQAEKUIACFKAABShAgTQi8O+pNFLRtF9N61MnUn0jGMxLdVIWSAEKUIACFKAABShAAQpQgAIUoAAFLFfAOWA3wNZ5r38HhYbAaf+OVF8Pg3mpTsoCKUABClCAAhSgAAUoQAEKUIACFKCApQqIDtzEP6cZfzGg9zp30c0QZF65WNdfXup2mmfl7OKW8DrrzrIpQAEKUIACFKAABShAAQpQgAIUoAAFLElAFwoSb2G+VYHynkA+F8DGRq1kglGoKEEXiNJmmb7LyKDpPG1alqZfXjfTbJrOJlGanGembDlbyWecZrSgNqqtV+bXBtM0bVqma+PKu1HZidJ0mYzLNl5OPuzi1i1YnT6BLPt2GD34QpSXioNVghhSsTwWZSQQHSN2Iod3UOARVoyZhj3RTijrnR1ZXaugYan87+B2po1Nir13Aqu2nEfEoxCcuBSHjsMHoWzG1D1Rpg2Jd7+W9na27/5GcgspQAEKUOCNCfC7evLUFxb0gFfPRzgUvhTFbY2/Vz3C1sn94fvVQvj8tBMBfSorhTw6sxI5SrcFGn6PU4uHwtXRsEzcrX/RJX91rLLtjINhs1HcwQpPziyFc+lOmHb0Fnp6ZBVlROPhw3g4OaUzW6kLCzqg7Awf3NjXHRl1OZKUEXEa/s7euPfTblGv8rpcj/Bn4+LoYj0ct9b0QRb9sivF+tvCbeYRBHUrqZsbjXW9i6Pd72Wx7+5SlHKIQ6ytLQzfPu5gvH1BfNNwkq6sxHWWZmV6Z8CRhz+hqG0kVrQvhg7Ok/BoRhs44Iky3Xn1h9gVugRlnNQb5KxCNsO+sB/QehbuLeqGOyu/RrF2EzHtoHApLV3kEILxFUphtM1IXNrXHy5RZ9A8kxcaHr2p2kVFICLWHo6OdricguUzC/vs3r9j/70NKKXtp9hr+DaDOybaNMLWKwvxYS57Zc2HppdBlYFBaDr/AJa1Sgd/sd50y47j12bFlHTTP5eXDoRnl+tJj5uHR9A8RyUE9JiLezM66fZhLPZP7oAaX63C8ssRaJxXrNNoW1Ja9qOjfyBHxe74aNFRzG4tglHKcBNTK3hi+KkeOP7wfyiU6BgG4i6sQgaPNpgd9BAfuWcwrErn8INdXxwWyxXVLRd9YT0yeTRHs5kHsLSbtyF/Gh2TISDtFRcXB/mKiYlBbGysMi4SX2rL7PhdXXGzsrIS8VAb2Irzh52dnTIup+V87fVSwCYLGc5NJgmcpAAFkhOwR1YXR9iGRuLEgYvIZleMwbzkqN7A/LgHN3Do6FkkODrAztEZGXlWewPqXAUFKEABClCAAu+yQIzYuNi4VVg0ewFKZXcQUzG4d+E4/hj1E47Ipis9ZmOeLpAnHTIXb4GTCz6Dp/8weGb9C2PnfoWSzg64fW4nun05RWbBzzvHKoE8ZcLkz4UFn8Cz++8iuHJPBFcym6SmcNIxD6p6ZUL/AZ9gsst4lLOPROZytVG0QTVgYD98+UMOdC6TAY+ze6OqruHR+d5lMMx+PVp7Zsbp5ZPQdd5VeHw7CyVEkOv0HH+U7xuHmcv7wbtIdsRd24f9EI013HIrwajEdY7HtmmrET34TzUA9PAsJq0IxfDAKiKQJ4cMaPj1BMSu8EeNPAPwR2BH5I2+igX1/NWNc7KXJaOQX1cMwBT0q1Af0SunoGqOp9g5pSu+ORaOQQHNINpMmQwiSNilOGSQcN8DEYBMwfJPTEpQJm3zo/+uqRhXrQ9q5HdEt3798Oj8Qiz/+76S7Cz+hh3bg2WIx8ZKhROXEHENG1ftQLi9PW5sP4y4+Eis/H0BPFxcUMCzPLwLiKWdymCUCOIFfNIVtRCGCV3K4kbgLHQbtQro/xcaykCeDHgab4sI+iIFZWf2boJZ9XOgV0dvWN1Zgu7lnLBtjD9GHnuEPqt7GgXynuDghvU4F5GAqJDdyjbsX74Q6UvkQY5CHqjmVUgEX/JjwPYJGFdLBCWrPsUfY9ogW1gQRnTqBxvruhjYrHTibU+jUzKgpA1akEm+y6Ce1tZLe9fypeSdP7yLRng6W/mu2VpbW+uDeFp6Sjyfl4eXvc8TYjoFkgikQ62PB4j/iDhYgoBDkQYY/78GllAV1oECFKAABShAAQq8EwLOudyV7Zg4oLt+e6ysvNCy+wj092+J5pVL6IJU+mQUbTsFF/JXEd/LPsVX3UQrPd1Qv/s3GDj4M9RylSEhdbBN76iMOIiWK3KwdcypvNvbGIIMyoxn/LG1tdOlape0WeC/eBF2l2iCr9vWV9KmHb2Hnl3GYMLuPfj8y/aYL+bWFq2rqlaKga1Nc8xc3AAr2zZBRRGkkkPLL3/HD5/7KK3xXBsOwYhm/dGjueFbf6keP+D48KZKunGd40IOoN+xh5j4q5dSzs1/A3Dcug6meOVWpuWfDCXb4cyGR+jo9xna1fxFmd/lx7kYtfELjHxoj/RyjkNRjLm8Gw5DmmKwbr3Sfeyqdehfp4CyjPyjtk5Ut9veyQ7W1i5QNFK4vL4goxHnij0QesINvy9aioOXbiKz13jsn+COJaVq40RUNI4umwjbspNQWtdqT1s0+u4ZNOvWTZtU3kf3UY8bpbWcDOaJoVSPX7ATOVDjk0FoMEeZhRbf/o6Jn6ueck6ibRHTKSs7C7os/xf2X/uj64B2+E0WJIYRi/ZhqG8RdUL+jb2FDc27YJwITGvDvFGfYp6c6LFItBgspLhmqfIZzmzOiMH1eqGz3ww1a5lPsHbht/gw67vzyAEtqCTf5UsG72TQ6WWCeCqS2H9smadRJAreGVvrM6TCCG+zTQXE5Ipg0/3kZDifAhSgwIsL8AvCi5txCQpQgAIUSF6A39WTt3nVlKiICBGhk6U4wMFBC7a9SqmxiIoSpZmUFSVmOjiobd8MpcciIiJOtLKySZRfrZOtkl/eoitvNT38eIO4jTgOEQ9FfdM5wtGkfKVMceuhuPlQrN9auZXVsB7DmLwNM7vXLhy+L27NFC3KlNtd91XAo4nNkgQ9xb2MSis80QhKrV9sFMRWwHTVSn3FKmwcxR1BhlWleOxFl496eBsPRLAtl5MhoBp3ZT0yuDVHn2VH4PN3M2xtshk/GgfIUlwbQ8ZYcSttlNgiWyTeP4YcLz+mP+5sHJN4vnip4piTzSXFjkp6jL14aZa8hBbA095ftq78rp5Y7nUF8bS1/B/QXoYMXtNjBQAAAABJRU5ErkJggg==;" vertex="1" parent="1">
          <mxGeometry x="194" y="1640" width="1267" height="74" as="geometry" />
        </mxCell>
        <mxCell id="xE5-gIOUlX2Joq6-kquB-33" value="&lt;h1 class=&quot;mt-2 text-4xl font-bold tracking-tight text-gray-900 sm:text-5xl&quot;&gt;Knowledge application.&lt;/h1&gt;" style="text;html=1;strokeColor=none;fillColor=none;align=center;verticalAlign=middle;whiteSpace=wrap;rounded=0;" vertex="1" parent="1">
          <mxGeometry x="514" y="1760" width="590" height="30" as="geometry" />
        </mxCell>
        <mxCell id="xE5-gIOUlX2Joq6-kquB-37" value="&lt;font style=&quot;font-size: 24px;&quot;&gt;Graficos sobre los resultados de algoritmos&lt;/font&gt;" style="text;html=1;strokeColor=none;fillColor=none;align=center;verticalAlign=middle;whiteSpace=wrap;rounded=0;" vertex="1" parent="1">
          <mxGeometry x="589" y="1880" width="420" height="30" as="geometry" />
        </mxCell>
        <mxCell id="xE5-gIOUlX2Joq6-kquB-53" value="Lorem ipsum dolor sit amet, consectetur adipisicing elit" style="html=1;fillColor=#10739E;strokeColor=none;shadow=0;fontSize=12;fontColor=#FFFFFF;align=center;fontStyle=0;whiteSpace=wrap;rounded=0;" vertex="1" parent="1">
          <mxGeometry x="595" y="2015" width="100" height="100" as="geometry" />
        </mxCell>
        <mxCell id="xE5-gIOUlX2Joq6-kquB-54" value="Lorem ipsum dolor sit amet, consectetur adipisicing elit" style="html=1;fillColor=#F2931E;strokeColor=none;shadow=0;fontSize=12;fontColor=#FFFFFF;align=center;fontStyle=0;whiteSpace=wrap;rounded=0;" vertex="1" parent="1">
          <mxGeometry x="700" y="2015" width="100" height="100" as="geometry" />
        </mxCell>
        <mxCell id="xE5-gIOUlX2Joq6-kquB-55" value="Lorem ipsum dolor sit amet, consectetur adipisicing elit" style="html=1;fillColor=#AE4132;strokeColor=none;shadow=0;fontSize=12;fontColor=#FFFFFF;align=center;fontStyle=0;whiteSpace=wrap;rounded=0;" vertex="1" parent="1">
          <mxGeometry x="595" y="2120" width="100" height="100" as="geometry" />
        </mxCell>
        <mxCell id="xE5-gIOUlX2Joq6-kquB-56" value="Lorem ipsum dolor sit amet, consectetur adipisicing elit" style="html=1;fillColor=#23445D;strokeColor=none;shadow=0;fontSize=12;fontColor=#FFFFFF;align=center;fontStyle=0;whiteSpace=wrap;rounded=0;" vertex="1" parent="1">
          <mxGeometry x="700" y="2120" width="100" height="100" as="geometry" />
        </mxCell>
        <mxCell id="xE5-gIOUlX2Joq6-kquB-57" value="Label" style="html=1;fillColor=#CCCCCC;strokeColor=none;shadow=0;fontSize=14;fontColor=#FFFFFF;align=center;fontStyle=1;whiteSpace=wrap;horizontal=0;rounded=0;" vertex="1" parent="1">
          <mxGeometry x="560" y="2015" width="30" height="100" as="geometry" />
        </mxCell>
        <mxCell id="xE5-gIOUlX2Joq6-kquB-58" value="Label" style="html=1;fillColor=#CCCCCC;strokeColor=none;shadow=0;fontSize=14;fontColor=#FFFFFF;align=center;fontStyle=1;whiteSpace=wrap;horizontal=0;rounded=0;" vertex="1" parent="1">
          <mxGeometry x="560" y="2120" width="30" height="100" as="geometry" />
        </mxCell>
        <mxCell id="xE5-gIOUlX2Joq6-kquB-59" value="Label" style="html=1;fillColor=#CCCCCC;strokeColor=none;shadow=0;fontSize=14;fontColor=#FFFFFF;align=center;fontStyle=1;whiteSpace=wrap;rounded=0;" vertex="1" parent="1">
          <mxGeometry x="595" y="1980" width="100" height="30" as="geometry" />
        </mxCell>
        <mxCell id="xE5-gIOUlX2Joq6-kquB-60" value="Label" style="html=1;fillColor=#CCCCCC;strokeColor=none;shadow=0;fontSize=14;fontColor=#FFFFFF;align=center;fontStyle=1;whiteSpace=wrap;rounded=0;" vertex="1" parent="1">
          <mxGeometry x="700" y="1980" width="100" height="30" as="geometry" />
        </mxCell>
      </root>
    </mxGraphModel>
  </diagram>
</mxfile>
